<svg xmlns="http://www.w3.org/2000/svg" viewBox="0 0 1380 400" font-family="'Helvetica Neue',Helvetica,Arial,sans-serif">
<rect width="1380" height="400" fill="#f8fafe"/>
<line x1="40" y1="24" x2="1340" y2="24" stroke="#cdddf6" stroke-width="1.5"/>
<text x="40" y="78" font-size="22" font-weight="700" fill="#10254f">Eager</text>
<text x="160" y="78" font-size="16" fill="#6b7a93">CPU launches each kernel individually</text>
<text x="40" y="142" font-family="'SF Mono','Roboto Mono',Menlo,Consolas,monospace" font-size="13" letter-spacing="1" fill="#5f86c4">GPU</text>
<rect x="96" y="120" width="72" height="34" rx="4" fill="#1e5fd6"/>
<rect x="168" y="124" width="20" height="26" rx="2" fill="#d4dceb"/>
<rect x="188" y="120" width="72" height="34" rx="4" fill="#1e5fd6"/>
<rect x="260" y="124" width="20" height="26" rx="2" fill="#d4dceb"/>
<rect x="280" y="120" width="72" height="34" rx="4" fill="#1e5fd6"/>
<rect x="352" y="124" width="20" height="26" rx="2" fill="#d4dceb"/>
<rect x="372" y="120" width="72" height="34" rx="4" fill="#1e5fd6"/>
<rect x="444" y="124" width="20" height="26" rx="2" fill="#d4dceb"/>
<rect x="464" y="120" width="72" height="34" rx="4" fill="#1e5fd6"/>
<rect x="536" y="124" width="20" height="26" rx="2" fill="#d4dceb"/>
<rect x="556" y="120" width="72" height="34" rx="4" fill="#1e5fd6"/>
<rect x="628" y="124" width="20" height="26" rx="2" fill="#d4dceb"/>
<rect x="648" y="120" width="72" height="34" rx="4" fill="#1e5fd6"/>
<text x="738" y="144" font-size="22" font-weight="700" fill="#6b7a93">…</text>
<text x="900" y="132" font-size="15" fill="#6b7a93">Gaps = CPU launch overhead</text>
<text x="900" y="154" font-size="15" fill="#6b7a93">Adds up across ~250 steps</text>
<line x1="40" y1="190" x2="1340" y2="190" stroke="#b9d0f0" stroke-width="1.4" stroke-dasharray="7,6"/>
<text x="40" y="250" font-size="22" font-weight="700" fill="#1e5fd6">CUDA Graph</text>
<text x="232" y="250" font-size="16" fill="#6b7a93">Record once, replay entire step as one call</text>
<text x="40" y="314" font-family="'SF Mono','Roboto Mono',Menlo,Consolas,monospace" font-size="13" letter-spacing="1" fill="#5f86c4">GPU</text>
<rect x="96" y="292" width="660" height="34" rx="5" fill="#1e5fd6"/>
<text x="426.0" y="309.0" text-anchor="middle" dominant-baseline="central" font-size="14.5" font-weight="600" fill="#ffffff">Graph Replay: Forward + Sample + State Update</text>
<rect x="756" y="296" width="60" height="26" rx="2" fill="#d4dceb"/>
<rect x="816" y="292" width="524" height="34" rx="5" fill="#1e5fd6"/>
<text x="426.0" y="350" text-anchor="middle" font-size="13" fill="#6b7a93">Step N</text>
<text x="936" y="350" text-anchor="middle" font-size="13" fill="#6b7a93">Step N+1</text>
<line x1="40" y1="376" x2="1340" y2="376" stroke="#cdddf6" stroke-width="1.5"/>
</svg>