<svg xmlns="http://www.w3.org/2000/svg" viewBox="0 0 820 240">
  <defs>
    <marker id="arr" markerWidth="8" markerHeight="6" refX="8" refY="3" orient="auto">
      <polygon points="0 0, 8 3, 0 6" fill="#555"/>
    </marker>
  </defs>

  <rect width="820" height="240" rx="4" fill="#F5F5F5"/>

  <text x="410" y="26" text-anchor="middle" font-family="'Helvetica Neue', Helvetica, Arial, sans-serif" font-size="18" font-weight="bold" fill="#333">MOSS-TD Optimization Strategies by Stage</text>

  <!-- Pipeline boxes (top row) -->
  <!-- Encoder -->
  <rect x="30" y="48" width="230" height="36" rx="10" fill="#FFE8A8" stroke="#C8A050" stroke-width="1.5"/>
  <text x="145" y="71" text-anchor="middle" font-family="'Helvetica Neue', Helvetica, Arial, sans-serif" font-size="15" font-weight="bold" fill="#333">Encoder</text>

  <line x1="264" y1="66" x2="294" y2="66" stroke="#555" stroke-width="1.5" marker-end="url(#arr)"/>

  <!-- LLM Prefill -->
  <rect x="300" y="48" width="200" height="36" rx="10" fill="#F0C8B0" stroke="#B88868" stroke-width="1.5"/>
  <text x="400" y="71" text-anchor="middle" font-family="'Helvetica Neue', Helvetica, Arial, sans-serif" font-size="15" font-weight="bold" fill="#333">LLM Prefill</text>

  <line x1="504" y1="66" x2="534" y2="66" stroke="#555" stroke-width="1.5" marker-end="url(#arr)"/>

  <!-- AR Decode -->
  <rect x="540" y="48" width="240" height="36" rx="10" fill="#D4B8A8" stroke="#907058" stroke-width="1.5"/>
  <text x="660" y="71" text-anchor="middle" font-family="'Helvetica Neue', Helvetica, Arial, sans-serif" font-size="15" font-weight="bold" fill="#333">AR Decode</text>

  <!-- Vertical connectors -->
  <line x1="145" y1="84" x2="145" y2="103" stroke="#C8A050" stroke-width="1.5" stroke-dasharray="4,3"/>
  <line x1="400" y1="84" x2="400" y2="103" stroke="#B88868" stroke-width="1.5" stroke-dasharray="4,3"/>
  <line x1="660" y1="84" x2="660" y2="103" stroke="#907058" stroke-width="1.5" stroke-dasharray="4,3"/>

  <!-- Encoder optimizations -->
  <rect x="30" y="106" width="230" height="112" rx="8" fill="#FFF8E1" stroke="#C8A050" stroke-width="1"/>

  <rect x="45" y="118" width="200" height="26" rx="6" fill="#FFE8A8" stroke="#C8A050" stroke-width="1"/>
  <text x="145" y="135" text-anchor="middle" font-family="'Helvetica Neue', Helvetica, Arial, sans-serif" font-size="13" font-weight="bold" fill="#333">CUDA Graph</text>

  <rect x="45" y="150" width="200" height="26" rx="6" fill="#FFE8A8" stroke="#C8A050" stroke-width="1"/>
  <text x="145" y="167" text-anchor="middle" font-family="'Helvetica Neue', Helvetica, Arial, sans-serif" font-size="13" font-weight="bold" fill="#333">Torch Compile (opt-in)</text>

  <rect x="45" y="182" width="200" height="26" rx="6" fill="#FFE8A8" stroke="#C8A050" stroke-width="1"/>
  <text x="145" y="199" text-anchor="middle" font-family="'Helvetica Neue', Helvetica, Arial, sans-serif" font-size="13" font-weight="bold" fill="#333">LRU Cache</text>

  <!-- Prefill optimizations -->
  <rect x="300" y="106" width="200" height="80" rx="8" fill="#FFF0E8" stroke="#B88868" stroke-width="1"/>

  <rect x="315" y="118" width="170" height="26" rx="6" fill="#F0C8B0" stroke="#B88868" stroke-width="1"/>
  <text x="400" y="135" text-anchor="middle" font-family="'Helvetica Neue', Helvetica, Arial, sans-serif" font-size="13" font-weight="bold" fill="#333">Chunked Prefill</text>

  <rect x="315" y="150" width="170" height="26" rx="6" fill="#F0C8B0" stroke="#B88868" stroke-width="1"/>
  <text x="400" y="167" text-anchor="middle" font-family="'Helvetica Neue', Helvetica, Arial, sans-serif" font-size="13" font-weight="bold" fill="#333">Batched Inference</text>

  <!-- Decode optimizations -->
  <rect x="540" y="106" width="240" height="112" rx="8" fill="#EDE0D8" stroke="#907058" stroke-width="1"/>

  <rect x="555" y="118" width="210" height="26" rx="6" fill="#D4B8A8" stroke="#907058" stroke-width="1"/>
  <text x="660" y="135" text-anchor="middle" font-family="'Helvetica Neue', Helvetica, Arial, sans-serif" font-size="13" font-weight="bold" fill="#333">CUDA Graph</text>

  <rect x="555" y="150" width="210" height="26" rx="6" fill="#D4B8A8" stroke="#907058" stroke-width="1"/>
  <text x="660" y="167" text-anchor="middle" font-family="'Helvetica Neue', Helvetica, Arial, sans-serif" font-size="13" font-weight="bold" fill="#333">Async Decode</text>

  <rect x="555" y="182" width="210" height="26" rx="6" fill="#D4B8A8" stroke="#907058" stroke-width="1"/>
  <text x="660" y="199" text-anchor="middle" font-family="'Helvetica Neue', Helvetica, Arial, sans-serif" font-size="13" font-weight="bold" fill="#333">Stream Output</text>
</svg>
