<svg xmlns="http://www.w3.org/2000/svg" viewBox="0 0 800 352">
  <rect width="800" height="352" rx="4" fill="#F5F5F5"/>

  <text x="400" y="26" text-anchor="middle" font-family="'Helvetica Neue', Helvetica, Arial, sans-serif" font-size="18" font-weight="bold" fill="#333">MOSS-TD Inference Time Breakdown by Stage</text>

  <!-- Legend -->
  <rect x="215" y="38" width="14" height="14" rx="3" fill="#FFE8A8" stroke="#C8A050" stroke-width="1"/>
  <text x="235" y="50" font-family="'Helvetica Neue', Helvetica, Arial, sans-serif" font-size="15" fill="#555">Encoder</text>
  <rect x="325" y="38" width="14" height="14" rx="3" fill="#F0C8B0" stroke="#B88868" stroke-width="1"/>
  <text x="345" y="50" font-family="'Helvetica Neue', Helvetica, Arial, sans-serif" font-size="15" fill="#555">LLM Prefill</text>
  <rect x="455" y="38" width="14" height="14" rx="3" fill="#D4B8A8" stroke="#907058" stroke-width="1"/>
  <text x="475" y="50" font-family="'Helvetica Neue', Helvetica, Arial, sans-serif" font-size="15" fill="#555">AR Decode</text>

  <!-- 5s group -->
  <text x="10" y="85" font-family="'Helvetica Neue', Helvetica, Arial, sans-serif" font-size="14.5" font-weight="bold" fill="#333">5 s</text>

  <!-- 5s c=1: 8.9 / 14.7 / 76.4 -->
  <text x="66" y="85" font-family="'Helvetica Neue', Helvetica, Arial, sans-serif" font-size="13.5" fill="#777">c=1</text>
  <rect x="105" y="72" width="53" height="20" rx="3" fill="#FFE8A8" stroke="#C8A050" stroke-width="1"/>
  <text x="131" y="86" text-anchor="middle" font-family="'Helvetica Neue', Helvetica, Arial, sans-serif" font-size="12.75" fill="#555">8.9%</text>
  <rect x="158" y="72" width="88" height="20" fill="#F0C8B0" stroke="#B88868" stroke-width="1"/>
  <text x="202" y="86" text-anchor="middle" font-family="'Helvetica Neue', Helvetica, Arial, sans-serif" font-size="12.75" fill="#555">14.7%</text>
  <rect x="246" y="72" width="459" height="20" rx="0 3 3 0" fill="#D4B8A8" stroke="#907058" stroke-width="1"/>
  <text x="475" y="86" text-anchor="middle" font-family="'Helvetica Neue', Helvetica, Arial, sans-serif" font-size="12.75" fill="#555">76.4%</text>

  <!-- 5s c=4: 20.0 / 22.3 / 57.7 -->
  <text x="66" y="112" font-family="'Helvetica Neue', Helvetica, Arial, sans-serif" font-size="13.5" fill="#777">c=4</text>
  <rect x="105" y="99" width="120" height="20" rx="3" fill="#FFE8A8" stroke="#C8A050" stroke-width="1"/>
  <text x="165" y="113" text-anchor="middle" font-family="'Helvetica Neue', Helvetica, Arial, sans-serif" font-size="12.75" fill="#555">20.0%</text>
  <rect x="225" y="99" width="134" height="20" fill="#F0C8B0" stroke="#B88868" stroke-width="1"/>
  <text x="292" y="113" text-anchor="middle" font-family="'Helvetica Neue', Helvetica, Arial, sans-serif" font-size="12.75" fill="#555">22.3%</text>
  <rect x="359" y="99" width="346" height="20" rx="0 3 3 0" fill="#D4B8A8" stroke="#907058" stroke-width="1"/>
  <text x="532" y="113" text-anchor="middle" font-family="'Helvetica Neue', Helvetica, Arial, sans-serif" font-size="12.75" fill="#555">57.7%</text>

  <!-- 5s c=16: 38.2 / 29.7 / 32.1 -->
  <text x="66" y="139" font-family="'Helvetica Neue', Helvetica, Arial, sans-serif" font-size="13.5" fill="#777">c=16</text>
  <rect x="105" y="126" width="229" height="20" rx="3" fill="#FFE8A8" stroke="#C8A050" stroke-width="1"/>
  <text x="219" y="140" text-anchor="middle" font-family="'Helvetica Neue', Helvetica, Arial, sans-serif" font-size="12.75" fill="#555">38.2%</text>
  <rect x="334" y="126" width="178" height="20" fill="#F0C8B0" stroke="#B88868" stroke-width="1"/>
  <text x="423" y="140" text-anchor="middle" font-family="'Helvetica Neue', Helvetica, Arial, sans-serif" font-size="12.75" fill="#555">29.7%</text>
  <rect x="512" y="126" width="193" height="20" rx="0 3 3 0" fill="#D4B8A8" stroke="#907058" stroke-width="1"/>
  <text x="608" y="140" text-anchor="middle" font-family="'Helvetica Neue', Helvetica, Arial, sans-serif" font-size="12.75" fill="#555">32.1%</text>

  <!-- Divider -->
  <line x1="30" y1="156" x2="770" y2="156" stroke="#DDD" stroke-width="1"/>

  <!-- 60s group -->
  <text x="10" y="180" font-family="'Helvetica Neue', Helvetica, Arial, sans-serif" font-size="14.5" font-weight="bold" fill="#333">60 s</text>

  <!-- 60s c=1: 4.0 / 2.1 / 94.0 -->
  <text x="66" y="180" font-family="'Helvetica Neue', Helvetica, Arial, sans-serif" font-size="13.5" fill="#777">c=1</text>
  <rect x="105" y="167" width="24" height="20" rx="3" fill="#FFE8A8" stroke="#C8A050" stroke-width="1"/>
  <text x="117" y="181" text-anchor="middle" font-family="'Helvetica Neue', Helvetica, Arial, sans-serif" font-size="12.75" fill="#555">4%</text>
  <rect x="129" y="167" width="13" height="20" fill="#F0C8B0" stroke="#B88868" stroke-width="1"/>
  <rect x="142" y="167" width="563" height="20" rx="0 3 3 0" fill="#D4B8A8" stroke="#907058" stroke-width="1"/>
  <text x="423" y="181" text-anchor="middle" font-family="'Helvetica Neue', Helvetica, Arial, sans-serif" font-size="12.75" fill="#555">94.0%</text>

  <!-- 60s c=4: 5.0 / 4.6 / 90.4 -->
  <text x="66" y="207" font-family="'Helvetica Neue', Helvetica, Arial, sans-serif" font-size="13.5" fill="#777">c=4</text>
  <rect x="105" y="194" width="30" height="20" rx="3" fill="#FFE8A8" stroke="#C8A050" stroke-width="1"/>
  <text x="120" y="208" text-anchor="middle" font-family="'Helvetica Neue', Helvetica, Arial, sans-serif" font-size="12.75" fill="#555">5%</text>
  <rect x="135" y="194" width="28" height="20" fill="#F0C8B0" stroke="#B88868" stroke-width="1"/>
  <rect x="163" y="194" width="542" height="20" rx="0 3 3 0" fill="#D4B8A8" stroke="#907058" stroke-width="1"/>
  <text x="434" y="208" text-anchor="middle" font-family="'Helvetica Neue', Helvetica, Arial, sans-serif" font-size="12.75" fill="#555">90.4%</text>

  <!-- 60s c=16: 13.7 / 9.5 / 76.8 -->
  <text x="66" y="234" font-family="'Helvetica Neue', Helvetica, Arial, sans-serif" font-size="13.5" fill="#777">c=16</text>
  <rect x="105" y="221" width="82" height="20" rx="3" fill="#FFE8A8" stroke="#C8A050" stroke-width="1"/>
  <text x="146" y="235" text-anchor="middle" font-family="'Helvetica Neue', Helvetica, Arial, sans-serif" font-size="12.75" fill="#555">13.7%</text>
  <rect x="187" y="221" width="57" height="20" fill="#F0C8B0" stroke="#B88868" stroke-width="1"/>
  <text x="215" y="235" text-anchor="middle" font-family="'Helvetica Neue', Helvetica, Arial, sans-serif" font-size="12.75" fill="#555">9.5%</text>
  <rect x="244" y="221" width="461" height="20" rx="0 3 3 0" fill="#D4B8A8" stroke="#907058" stroke-width="1"/>
  <text x="474" y="235" text-anchor="middle" font-family="'Helvetica Neue', Helvetica, Arial, sans-serif" font-size="12.75" fill="#555">76.8%</text>

  <!-- Divider -->
  <line x1="30" y1="251" x2="770" y2="251" stroke="#DDD" stroke-width="1"/>

  <!-- 20min group -->
  <text x="10" y="275" font-family="'Helvetica Neue', Helvetica, Arial, sans-serif" font-size="14.5" font-weight="bold" fill="#333">20 min</text>

  <!-- 20min c=1: 4.7 / 0.8 / 94.5 -->
  <text x="66" y="275" font-family="'Helvetica Neue', Helvetica, Arial, sans-serif" font-size="13.5" fill="#777">c=1</text>
  <rect x="105" y="262" width="28" height="20" rx="3" fill="#FFE8A8" stroke="#C8A050" stroke-width="1"/>
  <rect x="133" y="262" width="5" height="20" fill="#F0C8B0" stroke="#B88868" stroke-width="1"/>
  <rect x="138" y="262" width="567" height="20" rx="0 3 3 0" fill="#D4B8A8" stroke="#907058" stroke-width="1"/>
  <text x="421" y="276" text-anchor="middle" font-family="'Helvetica Neue', Helvetica, Arial, sans-serif" font-size="12.75" fill="#555">94.5%</text>

  <!-- 20min c=4: 9.2 / 1.9 / 88.9 -->
  <text x="66" y="302" font-family="'Helvetica Neue', Helvetica, Arial, sans-serif" font-size="13.5" fill="#777">c=4</text>
  <rect x="105" y="289" width="55" height="20" rx="3" fill="#FFE8A8" stroke="#C8A050" stroke-width="1"/>
  <text x="132" y="303" text-anchor="middle" font-family="'Helvetica Neue', Helvetica, Arial, sans-serif" font-size="12.75" fill="#555">9.2%</text>
  <rect x="160" y="289" width="12" height="20" fill="#F0C8B0" stroke="#B88868" stroke-width="1"/>
  <rect x="172" y="289" width="533" height="20" rx="0 3 3 0" fill="#D4B8A8" stroke="#907058" stroke-width="1"/>
  <text x="438" y="303" text-anchor="middle" font-family="'Helvetica Neue', Helvetica, Arial, sans-serif" font-size="12.75" fill="#555">88.9%</text>

  <!-- 20min c=16: 11.6 / 2.6 / 85.7 -->
  <text x="66" y="329" font-family="'Helvetica Neue', Helvetica, Arial, sans-serif" font-size="13.5" fill="#777">c=16</text>
  <rect x="105" y="316" width="70" height="20" rx="3" fill="#FFE8A8" stroke="#C8A050" stroke-width="1"/>
  <text x="140" y="330" text-anchor="middle" font-family="'Helvetica Neue', Helvetica, Arial, sans-serif" font-size="12.75" fill="#555">11.6%</text>
  <rect x="175" y="316" width="16" height="20" fill="#F0C8B0" stroke="#B88868" stroke-width="1"/>
  <rect x="191" y="316" width="514" height="20" rx="0 3 3 0" fill="#D4B8A8" stroke="#907058" stroke-width="1"/>
  <text x="448" y="330" text-anchor="middle" font-family="'Helvetica Neue', Helvetica, Arial, sans-serif" font-size="12.75" fill="#555">85.7%</text>

</svg>