<?xml version="1.0" encoding="utf-8" standalone="no"?>
<!DOCTYPE svg PUBLIC "-//W3C//DTD SVG 1.1//EN"
  "http://www.w3.org/Graphics/SVG/1.1/DTD/svg11.dtd">
<svg xmlns:xlink="http://www.w3.org/1999/xlink" width="1152pt" height="648pt" viewBox="0 0 1152 648" xmlns="http://www.w3.org/2000/svg" version="1.1">
 <metadata>
  <rdf:RDF xmlns:dc="http://purl.org/dc/elements/1.1/" xmlns:cc="http://creativecommons.org/ns#" xmlns:rdf="http://www.w3.org/1999/02/22-rdf-syntax-ns#">
   <cc:Work>
    <dc:type rdf:resource="http://purl.org/dc/dcmitype/StillImage"/>
    <dc:date>2026-07-19T14:41:00.884586</dc:date>
    <dc:format>image/svg+xml</dc:format>
    <dc:creator>
     <cc:Agent>
      <dc:title>Matplotlib v3.11.0, https://matplotlib.org/</dc:title>
     </cc:Agent>
    </dc:creator>
   </cc:Work>
  </rdf:RDF>
 </metadata>
 <defs>
  <style type="text/css">*{stroke-linejoin: round; stroke-linecap: butt}</style>
 </defs>
 <g id="figure_1">
  <g id="patch_1">
   <path d="M 0 648
L 1152 648
L 1152 0
L 0 0
z
" style="fill: #ffffff"/>
  </g>
  <g id="axes_1">
   <g id="patch_2">
    <path d="M 349.2 262.8
L 464.4 262.8
L 464.4 208.08
L 349.2 208.08
z
" clip-path="url(#p7b36b6b903)" style="fill: #ffffff; stroke-dasharray: 5.4,4.05; stroke-dashoffset: 0; stroke: #9ca3af; stroke-width: 1.35; stroke-linejoin: miter"/>
   </g>
   <g id="patch_3">
    <path d="M 428.4 370.8
L 464.4 370.8
L 464.4 316.08
L 428.4 316.08
z
" clip-path="url(#p7b36b6b903)" style="fill: #ffffff; stroke-dasharray: 5.4,4.05; stroke-dashoffset: 0; stroke: #9ca3af; stroke-width: 1.35; stroke-linejoin: miter"/>
   </g>
   <g id="patch_4">
    <path d="M 284.4 478.8
L 464.4 478.8
L 464.4 424.08
L 284.4 424.08
z
" clip-path="url(#p7b36b6b903)" style="fill: #ffffff; stroke-dasharray: 5.4,4.05; stroke-dashoffset: 0; stroke: #9ca3af; stroke-width: 1.35; stroke-linejoin: miter"/>
   </g>
   <g id="patch_5">
    <path d="M 51.84 564.48
L 82.08 564.48
L 82.08 537.12
L 51.84 537.12
z
" clip-path="url(#p7b36b6b903)" style="fill: #1d4ed8; stroke: #111827; stroke-linejoin: miter"/>
   </g>
   <g id="patch_6">
    <path d="M 51.84 610.56
L 82.08 610.56
L 82.08 583.2
L 51.84 583.2
z
" clip-path="url(#p7b36b6b903)" style="fill: #ffffff; stroke-dasharray: 4.8,3.6; stroke-dashoffset: 0; stroke: #9ca3af; stroke-width: 1.2; stroke-linejoin: miter"/>
   </g>
   <g id="patch_7">
    <path d="M 104.4 262.8
L 349.2 262.8
L 349.2 208.08
L 104.4 208.08
z
" clip-path="url(#p7b36b6b903)" style="fill: #1d4ed8; stroke: #111827; stroke-width: 1.25; stroke-linejoin: miter"/>
   </g>
   <g id="patch_8">
    <path d="M 104.4 370.8
L 428.4 370.8
L 428.4 316.08
L 104.4 316.08
z
" clip-path="url(#p7b36b6b903)" style="fill: #3b82f6; stroke: #111827; stroke-width: 1.25; stroke-linejoin: miter"/>
   </g>
   <g id="patch_9">
    <path d="M 104.4 478.8
L 284.4 478.8
L 284.4 424.08
L 104.4 424.08
z
" clip-path="url(#p7b36b6b903)" style="fill: #93c5fd; stroke: #111827; stroke-width: 1.25; stroke-linejoin: miter"/>
   </g>
   <g id="patch_10">
    <path d="M 745.2 273.932308
L 851.76 273.932308
L 851.76 168.48
L 745.2 168.48
z
" clip-path="url(#p7b36b6b903)" style="fill: #1d4ed8; stroke: #111827; stroke-width: 1.25; stroke-linejoin: miter"/>
   </g>
   <g id="patch_11">
    <path d="M 745.2 413.501538
L 851.76 413.501538
L 851.76 273.932308
L 745.2 273.932308
z
" clip-path="url(#p7b36b6b903)" style="fill: #3b82f6; stroke: #111827; stroke-width: 1.25; stroke-linejoin: miter"/>
   </g>
   <g id="patch_12">
    <path d="M 745.2 491.04
L 851.76 491.04
L 851.76 413.501538
L 745.2 413.501538
z
" clip-path="url(#p7b36b6b903)" style="fill: #93c5fd; stroke: #111827; stroke-width: 1.25; stroke-linejoin: miter"/>
   </g>
   <g id="line2d_1">
    <path d="M 876.24 329.76
L 906.48 329.76
" clip-path="url(#p7b36b6b903)" style="fill: none; stroke: #7e22ce; stroke-width: 1.2; stroke-linecap: square"/>
   </g>
   <g id="text_1">
    <!-- Packing variable-length vocoder features -->
    <g style="fill: #111827" transform="translate(261.017578 41.574727) scale(0.27 -0.27)">
     <defs>
      <path id="DejaVuSans-Bold-33" d="M 588 4666
L 2584 4666
Q 3475 4666 3951 4270
Q 4428 3875 4428 3144
Q 4428 2409 3951 2014
Q 3475 1619 2584 1619
L 1791 1619
L 1791 0
L 588 0
L 588 4666
z
M 1791 3794
L 1791 2491
L 2456 2491
Q 2806 2491 2997 2661
Q 3188 2831 3188 3144
Q 3188 3456 2997 3625
Q 2806 3794 2456 3794
L 1791 3794
z
" transform="scale(0.015625)"/>
      <path id="DejaVuSans-Bold-44" d="M 2106 1575
Q 1756 1575 1579 1456
Q 1403 1338 1403 1106
Q 1403 894 1545 773
Q 1688 653 1941 653
Q 2256 653 2472 879
Q 2688 1106 2688 1447
L 2688 1575
L 2106 1575
z
M 3816 1997
L 3816 0
L 2688 0
L 2688 519
Q 2463 200 2181 54
Q 1900 -91 1497 -91
Q 953 -91 614 226
Q 275 544 275 1050
Q 275 1666 698 1953
Q 1122 2241 2028 2241
L 2688 2241
L 2688 2328
Q 2688 2594 2478 2717
Q 2269 2841 1825 2841
Q 1466 2841 1156 2769
Q 847 2697 581 2553
L 581 3406
Q 941 3494 1303 3539
Q 1666 3584 2028 3584
Q 2975 3584 3395 3211
Q 3816 2838 3816 1997
z
" transform="scale(0.015625)"/>
      <path id="DejaVuSans-Bold-46" d="M 3366 3391
L 3366 2478
Q 3138 2634 2908 2709
Q 2678 2784 2431 2784
Q 1963 2784 1702 2511
Q 1441 2238 1441 1747
Q 1441 1256 1702 982
Q 1963 709 2431 709
Q 2694 709 2930 787
Q 3166 866 3366 1019
L 3366 103
Q 3103 6 2833 -42
Q 2563 -91 2291 -91
Q 1344 -91 809 395
Q 275 881 275 1747
Q 275 2613 809 3098
Q 1344 3584 2291 3584
Q 2566 3584 2833 3536
Q 3100 3488 3366 3391
z
" transform="scale(0.015625)"/>
      <path id="DejaVuSans-Bold-4e" d="M 538 4863
L 1656 4863
L 1656 2216
L 2944 3500
L 4244 3500
L 2534 1894
L 4378 0
L 3022 0
L 1656 1459
L 1656 0
L 538 0
L 538 4863
z
" transform="scale(0.015625)"/>
      <path id="DejaVuSans-Bold-4c" d="M 538 3500
L 1656 3500
L 1656 0
L 538 0
L 538 3500
z
M 538 4863
L 1656 4863
L 1656 3950
L 538 3950
L 538 4863
z
" transform="scale(0.015625)"/>
      <path id="DejaVuSans-Bold-51" d="M 4056 2131
L 4056 0
L 2931 0
L 2931 347
L 2931 1631
Q 2931 2084 2911 2256
Q 2891 2428 2841 2509
Q 2775 2619 2662 2680
Q 2550 2741 2406 2741
Q 2056 2741 1856 2470
Q 1656 2200 1656 1722
L 1656 0
L 538 0
L 538 3500
L 1656 3500
L 1656 2988
Q 1909 3294 2193 3439
Q 2478 3584 2822 3584
Q 3428 3584 3742 3212
Q 4056 2841 4056 2131
z
" transform="scale(0.015625)"/>
      <path id="DejaVuSans-Bold-4a" d="M 2919 594
Q 2688 288 2409 144
Q 2131 0 1766 0
Q 1125 0 706 504
Q 288 1009 288 1791
Q 288 2575 706 3076
Q 1125 3578 1766 3578
Q 2131 3578 2409 3434
Q 2688 3291 2919 2981
L 2919 3500
L 4044 3500
L 4044 353
Q 4044 -491 3511 -936
Q 2978 -1381 1966 -1381
Q 1638 -1381 1331 -1331
Q 1025 -1281 716 -1178
L 716 -306
Q 1009 -475 1290 -558
Q 1572 -641 1856 -641
Q 2406 -641 2662 -400
Q 2919 -159 2919 353
L 2919 594
z
M 2181 2772
Q 1834 2772 1640 2515
Q 1447 2259 1447 1791
Q 1447 1309 1634 1061
Q 1822 813 2181 813
Q 2531 813 2725 1069
Q 2919 1325 2919 1791
Q 2919 2259 2725 2515
Q 2531 2772 2181 2772
z
" transform="scale(0.015625)"/>
      <path id="DejaVuSans-Bold-3" transform="scale(0.015625)"/>
      <path id="DejaVuSans-Bold-59" d="M 97 3500
L 1216 3500
L 2088 1081
L 2956 3500
L 4078 3500
L 2700 0
L 1472 0
L 97 3500
z
" transform="scale(0.015625)"/>
      <path id="DejaVuSans-Bold-55" d="M 3138 2547
Q 2991 2616 2845 2648
Q 2700 2681 2553 2681
Q 2122 2681 1889 2404
Q 1656 2128 1656 1613
L 1656 0
L 538 0
L 538 3500
L 1656 3500
L 1656 2925
Q 1872 3269 2151 3426
Q 2431 3584 2822 3584
Q 2878 3584 2943 3579
Q 3009 3575 3134 3559
L 3138 2547
z
" transform="scale(0.015625)"/>
      <path id="DejaVuSans-Bold-45" d="M 2400 722
Q 2759 722 2948 984
Q 3138 1247 3138 1747
Q 3138 2247 2948 2509
Q 2759 2772 2400 2772
Q 2041 2772 1848 2508
Q 1656 2244 1656 1747
Q 1656 1250 1848 986
Q 2041 722 2400 722
z
M 1656 2988
Q 1888 3294 2169 3439
Q 2450 3584 2816 3584
Q 3463 3584 3878 3070
Q 4294 2556 4294 1747
Q 4294 938 3878 423
Q 3463 -91 2816 -91
Q 2450 -91 2169 54
Q 1888 200 1656 506
L 1656 0
L 538 0
L 538 4863
L 1656 4863
L 1656 2988
z
" transform="scale(0.015625)"/>
      <path id="DejaVuSans-Bold-4f" d="M 538 4863
L 1656 4863
L 1656 0
L 538 0
L 538 4863
z
" transform="scale(0.015625)"/>
      <path id="DejaVuSans-Bold-48" d="M 4031 1759
L 4031 1441
L 1416 1441
Q 1456 1047 1700 850
Q 1944 653 2381 653
Q 2734 653 3104 758
Q 3475 863 3866 1075
L 3866 213
Q 3469 63 3072 -14
Q 2675 -91 2278 -91
Q 1328 -91 801 392
Q 275 875 275 1747
Q 275 2603 792 3093
Q 1309 3584 2216 3584
Q 3041 3584 3536 3087
Q 4031 2591 4031 1759
z
M 2881 2131
Q 2881 2450 2695 2645
Q 2509 2841 2209 2841
Q 1884 2841 1681 2658
Q 1478 2475 1428 2131
L 2881 2131
z
" transform="scale(0.015625)"/>
      <path id="DejaVuSans-Bold-10" d="M 347 2297
L 2309 2297
L 2309 1388
L 347 1388
L 347 2297
z
" transform="scale(0.015625)"/>
      <path id="DejaVuSans-Bold-57" d="M 1759 4494
L 1759 3500
L 2913 3500
L 2913 2700
L 1759 2700
L 1759 1216
Q 1759 972 1856 886
Q 1953 800 2241 800
L 2816 800
L 2816 0
L 1856 0
Q 1194 0 917 276
Q 641 553 641 1216
L 641 2700
L 84 2700
L 84 3500
L 641 3500
L 641 4494
L 1759 4494
z
" transform="scale(0.015625)"/>
      <path id="DejaVuSans-Bold-4b" d="M 4056 2131
L 4056 0
L 2931 0
L 2931 347
L 2931 1625
Q 2931 2084 2911 2256
Q 2891 2428 2841 2509
Q 2775 2619 2662 2680
Q 2550 2741 2406 2741
Q 2056 2741 1856 2470
Q 1656 2200 1656 1722
L 1656 0
L 538 0
L 538 4863
L 1656 4863
L 1656 2988
Q 1909 3294 2193 3439
Q 2478 3584 2822 3584
Q 3428 3584 3742 3212
Q 4056 2841 4056 2131
z
" transform="scale(0.015625)"/>
      <path id="DejaVuSans-Bold-52" d="M 2203 2784
Q 1831 2784 1636 2517
Q 1441 2250 1441 1747
Q 1441 1244 1636 976
Q 1831 709 2203 709
Q 2569 709 2762 976
Q 2956 1244 2956 1747
Q 2956 2250 2762 2517
Q 2569 2784 2203 2784
z
M 2203 3584
Q 3106 3584 3614 3096
Q 4122 2609 4122 1747
Q 4122 884 3614 396
Q 3106 -91 2203 -91
Q 1297 -91 786 396
Q 275 884 275 1747
Q 275 2609 786 3096
Q 1297 3584 2203 3584
z
" transform="scale(0.015625)"/>
      <path id="DejaVuSans-Bold-47" d="M 2919 2988
L 2919 4863
L 4044 4863
L 4044 0
L 2919 0
L 2919 506
Q 2688 197 2409 53
Q 2131 -91 1766 -91
Q 1119 -91 703 423
Q 288 938 288 1747
Q 288 2556 703 3070
Q 1119 3584 1766 3584
Q 2128 3584 2408 3439
Q 2688 3294 2919 2988
z
M 2181 722
Q 2541 722 2730 984
Q 2919 1247 2919 1747
Q 2919 2247 2730 2509
Q 2541 2772 2181 2772
Q 1825 2772 1636 2509
Q 1447 2247 1447 1747
Q 1447 1247 1636 984
Q 1825 722 2181 722
z
" transform="scale(0.015625)"/>
      <path id="DejaVuSans-Bold-49" d="M 2841 4863
L 2841 4128
L 2222 4128
Q 1984 4128 1890 4042
Q 1797 3956 1797 3744
L 1797 3500
L 2753 3500
L 2753 2700
L 1797 2700
L 1797 0
L 678 0
L 678 2700
L 122 2700
L 122 3500
L 678 3500
L 678 3744
Q 678 4316 997 4589
Q 1316 4863 1984 4863
L 2841 4863
z
" transform="scale(0.015625)"/>
      <path id="DejaVuSans-Bold-58" d="M 500 1363
L 500 3500
L 1625 3500
L 1625 3150
Q 1625 2866 1622 2436
Q 1619 2006 1619 1863
Q 1619 1441 1641 1255
Q 1663 1069 1716 984
Q 1784 875 1895 815
Q 2006 756 2150 756
Q 2500 756 2700 1025
Q 2900 1294 2900 1772
L 2900 3500
L 4019 3500
L 4019 0
L 2900 0
L 2900 506
Q 2647 200 2364 54
Q 2081 -91 1741 -91
Q 1134 -91 817 281
Q 500 653 500 1363
z
" transform="scale(0.015625)"/>
      <path id="DejaVuSans-Bold-56" d="M 3272 3391
L 3272 2541
Q 2913 2691 2578 2766
Q 2244 2841 1947 2841
Q 1628 2841 1473 2761
Q 1319 2681 1319 2516
Q 1319 2381 1436 2309
Q 1553 2238 1856 2203
L 2053 2175
Q 2913 2066 3209 1816
Q 3506 1566 3506 1031
Q 3506 472 3093 190
Q 2681 -91 1863 -91
Q 1516 -91 1145 -36
Q 775 19 384 128
L 384 978
Q 719 816 1070 734
Q 1422 653 1784 653
Q 2113 653 2278 743
Q 2444 834 2444 1013
Q 2444 1163 2330 1236
Q 2216 1309 1875 1350
L 1678 1375
Q 931 1469 631 1722
Q 331 1975 331 2491
Q 331 3047 712 3315
Q 1094 3584 1881 3584
Q 2191 3584 2531 3537
Q 2872 3491 3272 3391
z
" transform="scale(0.015625)"/>
     </defs>
     <use xlink:href="#DejaVuSans-Bold-33"/>
     <use xlink:href="#DejaVuSans-Bold-44" transform="translate(70.609375 0)"/>
     <use xlink:href="#DejaVuSans-Bold-46" transform="translate(138.09375 0)"/>
     <use xlink:href="#DejaVuSans-Bold-4e" transform="translate(197.375 0)"/>
     <use xlink:href="#DejaVuSans-Bold-4c" transform="translate(263.875 0)"/>
     <use xlink:href="#DejaVuSans-Bold-51" transform="translate(298.15625 0)"/>
     <use xlink:href="#DejaVuSans-Bold-4a" transform="translate(369.34375 0)"/>
     <use xlink:href="#DejaVuSans-Bold-3" transform="translate(440.921875 0)"/>
     <use xlink:href="#DejaVuSans-Bold-59" transform="translate(475.734375 0)"/>
     <use xlink:href="#DejaVuSans-Bold-44" transform="translate(540.921875 0)"/>
     <use xlink:href="#DejaVuSans-Bold-55" transform="translate(608.40625 0)"/>
     <use xlink:href="#DejaVuSans-Bold-4c" transform="translate(657.71875 0)"/>
     <use xlink:href="#DejaVuSans-Bold-44" transform="translate(692 0)"/>
     <use xlink:href="#DejaVuSans-Bold-45" transform="translate(759.484375 0)"/>
     <use xlink:href="#DejaVuSans-Bold-4f" transform="translate(831.0625 0)"/>
     <use xlink:href="#DejaVuSans-Bold-48" transform="translate(865.34375 0)"/>
     <use xlink:href="#DejaVuSans-Bold-10" transform="translate(933.171875 0)"/>
     <use xlink:href="#DejaVuSans-Bold-4f" transform="translate(974.671875 0)"/>
     <use xlink:href="#DejaVuSans-Bold-48" transform="translate(1008.953125 0)"/>
     <use xlink:href="#DejaVuSans-Bold-51" transform="translate(1076.78125 0)"/>
     <use xlink:href="#DejaVuSans-Bold-4a" transform="translate(1147.96875 0)"/>
     <use xlink:href="#DejaVuSans-Bold-57" transform="translate(1219.546875 0)"/>
     <use xlink:href="#DejaVuSans-Bold-4b" transform="translate(1267.34375 0)"/>
     <use xlink:href="#DejaVuSans-Bold-3" transform="translate(1338.53125 0)"/>
     <use xlink:href="#DejaVuSans-Bold-59" transform="translate(1373.34375 0)"/>
     <use xlink:href="#DejaVuSans-Bold-52" transform="translate(1438.53125 0)"/>
     <use xlink:href="#DejaVuSans-Bold-46" transform="translate(1507.234375 0)"/>
     <use xlink:href="#DejaVuSans-Bold-52" transform="translate(1566.515625 0)"/>
     <use xlink:href="#DejaVuSans-Bold-47" transform="translate(1635.21875 0)"/>
     <use xlink:href="#DejaVuSans-Bold-48" transform="translate(1706.796875 0)"/>
     <use xlink:href="#DejaVuSans-Bold-55" transform="translate(1774.625 0)"/>
     <use xlink:href="#DejaVuSans-Bold-3" transform="translate(1823.9375 0)"/>
     <use xlink:href="#DejaVuSans-Bold-49" transform="translate(1858.75 0)"/>
     <use xlink:href="#DejaVuSans-Bold-48" transform="translate(1902.25 0)"/>
     <use xlink:href="#DejaVuSans-Bold-44" transform="translate(1970.078125 0)"/>
     <use xlink:href="#DejaVuSans-Bold-57" transform="translate(2037.5625 0)"/>
     <use xlink:href="#DejaVuSans-Bold-58" transform="translate(2085.359375 0)"/>
     <use xlink:href="#DejaVuSans-Bold-55" transform="translate(2156.546875 0)"/>
     <use xlink:href="#DejaVuSans-Bold-48" transform="translate(2205.859375 0)"/>
     <use xlink:href="#DejaVuSans-Bold-56" transform="translate(2273.6875 0)"/>
    </g>
   </g>
   <g id="text_2">
    <!-- Dense projected features -->
    <g style="fill: #111827" transform="translate(166.310547 111.6) scale(0.17 -0.17)">
     <defs>
      <path id="DejaVuSans-Bold-27" d="M 1791 3756
L 1791 909
L 2222 909
Q 2959 909 3348 1275
Q 3738 1641 3738 2338
Q 3738 3031 3350 3393
Q 2963 3756 2222 3756
L 1791 3756
z
M 588 4666
L 1856 4666
Q 2919 4666 3439 4514
Q 3959 4363 4331 4000
Q 4659 3684 4818 3271
Q 4978 2859 4978 2338
Q 4978 1809 4818 1395
Q 4659 981 4331 666
Q 3956 303 3431 151
Q 2906 0 1856 0
L 588 0
L 588 4666
z
" transform="scale(0.015625)"/>
      <path id="DejaVuSans-Bold-53" d="M 1656 506
L 1656 -1331
L 538 -1331
L 538 3500
L 1656 3500
L 1656 2988
Q 1888 3294 2169 3439
Q 2450 3584 2816 3584
Q 3463 3584 3878 3070
Q 4294 2556 4294 1747
Q 4294 938 3878 423
Q 3463 -91 2816 -91
Q 2450 -91 2169 54
Q 1888 200 1656 506
z
M 2400 2772
Q 2041 2772 1848 2508
Q 1656 2244 1656 1747
Q 1656 1250 1848 986
Q 2041 722 2400 722
Q 2759 722 2948 984
Q 3138 1247 3138 1747
Q 3138 2247 2948 2509
Q 2759 2772 2400 2772
z
" transform="scale(0.015625)"/>
      <path id="DejaVuSans-Bold-4d" d="M 538 3500
L 1656 3500
L 1656 63
Q 1656 -641 1318 -1011
Q 981 -1381 341 -1381
L -213 -1381
L -213 -647
L -19 -647
Q 300 -647 419 -503
Q 538 -359 538 63
L 538 3500
z
M 538 4863
L 1656 4863
L 1656 3950
L 538 3950
L 538 4863
z
" transform="scale(0.015625)"/>
     </defs>
     <use xlink:href="#DejaVuSans-Bold-27"/>
     <use xlink:href="#DejaVuSans-Bold-48" transform="translate(83.015625 0)"/>
     <use xlink:href="#DejaVuSans-Bold-51" transform="translate(150.84375 0)"/>
     <use xlink:href="#DejaVuSans-Bold-56" transform="translate(222.03125 0)"/>
     <use xlink:href="#DejaVuSans-Bold-48" transform="translate(281.546875 0)"/>
     <use xlink:href="#DejaVuSans-Bold-3" transform="translate(349.375 0)"/>
     <use xlink:href="#DejaVuSans-Bold-53" transform="translate(384.1875 0)"/>
     <use xlink:href="#DejaVuSans-Bold-55" transform="translate(455.765625 0)"/>
     <use xlink:href="#DejaVuSans-Bold-52" transform="translate(505.078125 0)"/>
     <use xlink:href="#DejaVuSans-Bold-4d" transform="translate(573.78125 0)"/>
     <use xlink:href="#DejaVuSans-Bold-48" transform="translate(608.0625 0)"/>
     <use xlink:href="#DejaVuSans-Bold-46" transform="translate(675.890625 0)"/>
     <use xlink:href="#DejaVuSans-Bold-57" transform="translate(735.171875 0)"/>
     <use xlink:href="#DejaVuSans-Bold-48" transform="translate(782.96875 0)"/>
     <use xlink:href="#DejaVuSans-Bold-47" transform="translate(850.796875 0)"/>
     <use xlink:href="#DejaVuSans-Bold-3" transform="translate(922.375 0)"/>
     <use xlink:href="#DejaVuSans-Bold-49" transform="translate(957.1875 0)"/>
     <use xlink:href="#DejaVuSans-Bold-48" transform="translate(1000.6875 0)"/>
     <use xlink:href="#DejaVuSans-Bold-44" transform="translate(1068.515625 0)"/>
     <use xlink:href="#DejaVuSans-Bold-57" transform="translate(1136 0)"/>
     <use xlink:href="#DejaVuSans-Bold-58" transform="translate(1183.796875 0)"/>
     <use xlink:href="#DejaVuSans-Bold-55" transform="translate(1254.984375 0)"/>
     <use xlink:href="#DejaVuSans-Bold-48" transform="translate(1304.296875 0)"/>
     <use xlink:href="#DejaVuSans-Bold-56" transform="translate(1372.125 0)"/>
    </g>
   </g>
   <g id="text_3">
    <!-- $[B,\ T_{\max},\ D]$ -->
    <g style="fill: #111827" transform="translate(235.385 145.44) scale(0.17 -0.17)">
     <defs>
      <path id="DejaVuSans-3e" d="M 550 4863
L 1875 4863
L 1875 4416
L 1125 4416
L 1125 -397
L 1875 -397
L 1875 -844
L 550 -844
L 550 4863
z
" transform="scale(0.015625)"/>
      <path id="DejaVuSans-Oblique-25" d="M 1081 4666
L 2694 4666
Q 3350 4666 3675 4422
Q 4000 4178 4000 3688
Q 4000 3238 3720 2911
Q 3441 2584 2988 2516
Q 3375 2428 3569 2181
Q 3763 1934 3763 1522
Q 3763 819 3242 409
Q 2722 0 1819 0
L 172 0
L 1081 4666
z
M 1234 2228
L 903 519
L 1919 519
Q 2491 519 2800 781
Q 3109 1044 3109 1522
Q 3109 1891 2904 2059
Q 2700 2228 2247 2228
L 1234 2228
z
M 1606 4147
L 1331 2741
L 2272 2741
Q 2775 2741 3058 2959
Q 3341 3178 3341 3566
Q 3341 3869 3150 4008
Q 2959 4147 2541 4147
L 1606 4147
z
" transform="scale(0.015625)"/>
      <path id="DejaVuSans-f" d="M 750 794
L 1409 794
L 1409 256
L 897 -744
L 494 -744
L 750 256
L 750 794
z
" transform="scale(0.015625)"/>
      <path id="DejaVuSans-Oblique-37" d="M 378 4666
L 4325 4666
L 4225 4134
L 2559 4134
L 1759 0
L 1125 0
L 1925 4134
L 275 4134
L 378 4666
z
" transform="scale(0.015625)"/>
      <path id="DejaVuSans-50" d="M 3328 2828
Q 3544 3216 3844 3400
Q 4144 3584 4550 3584
Q 5097 3584 5394 3201
Q 5691 2819 5691 2113
L 5691 0
L 5113 0
L 5113 2094
Q 5113 2597 4934 2840
Q 4756 3084 4391 3084
Q 3944 3084 3684 2787
Q 3425 2491 3425 1978
L 3425 0
L 2847 0
L 2847 2094
Q 2847 2600 2669 2842
Q 2491 3084 2119 3084
Q 1678 3084 1418 2786
Q 1159 2488 1159 1978
L 1159 0
L 581 0
L 581 3500
L 1159 3500
L 1159 2956
Q 1356 3278 1631 3431
Q 1906 3584 2284 3584
Q 2666 3584 2933 3390
Q 3200 3197 3328 2828
z
" transform="scale(0.015625)"/>
      <path id="DejaVuSans-44" d="M 2194 1759
Q 1497 1759 1228 1600
Q 959 1441 959 1056
Q 959 750 1161 570
Q 1363 391 1709 391
Q 2188 391 2477 730
Q 2766 1069 2766 1631
L 2766 1759
L 2194 1759
z
M 3341 1997
L 3341 0
L 2766 0
L 2766 531
Q 2569 213 2275 61
Q 1981 -91 1556 -91
Q 1019 -91 701 211
Q 384 513 384 1019
Q 384 1609 779 1909
Q 1175 2209 1959 2209
L 2766 2209
L 2766 2266
Q 2766 2663 2505 2880
Q 2244 3097 1772 3097
Q 1472 3097 1187 3025
Q 903 2953 641 2809
L 641 3341
Q 956 3463 1253 3523
Q 1550 3584 1831 3584
Q 2591 3584 2966 3190
Q 3341 2797 3341 1997
z
" transform="scale(0.015625)"/>
      <path id="DejaVuSans-5b" d="M 3513 3500
L 2247 1797
L 3578 0
L 2900 0
L 1881 1375
L 863 0
L 184 0
L 1544 1831
L 300 3500
L 978 3500
L 1906 2253
L 2834 3500
L 3513 3500
z
" transform="scale(0.015625)"/>
      <path id="DejaVuSans-Oblique-27" d="M 1081 4666
L 2438 4666
Q 3519 4666 4070 4208
Q 4622 3750 4622 2847
Q 4622 2250 4412 1698
Q 4203 1147 3834 769
Q 3463 381 2891 190
Q 2319 0 1538 0
L 172 0
L 1081 4666
z
M 1613 4147
L 909 519
L 1734 519
Q 2794 519 3375 1128
Q 3956 1738 3956 2847
Q 3956 3519 3581 3833
Q 3206 4147 2406 4147
L 1613 4147
z
" transform="scale(0.015625)"/>
      <path id="DejaVuSans-40" d="M 1947 4863
L 1947 -844
L 622 -844
L 622 -397
L 1369 -397
L 1369 4416
L 622 4416
L 622 4863
L 1947 4863
z
" transform="scale(0.015625)"/>
     </defs>
     <use xlink:href="#DejaVuSans-3e" transform="translate(0 0.015625)"/>
     <use xlink:href="#DejaVuSans-Oblique-25" transform="translate(39.013672 0.015625)"/>
     <use xlink:href="#DejaVuSans-f" transform="translate(107.617188 0.015625)"/>
     <use xlink:href="#DejaVuSans-Oblique-37" transform="translate(191.357097 0.015625)"/>
     <use xlink:href="#DejaVuSans-50" transform="translate(252.441082 -14.984326) scale(0.7)"/>
     <use xlink:href="#DejaVuSans-44" transform="translate(320.629558 -14.984326) scale(0.7)"/>
     <use xlink:href="#DejaVuSans-5b" transform="translate(363.525066 -14.984326) scale(0.7)"/>
     <use xlink:href="#DejaVuSans-f" transform="translate(419.050196 0.015625)"/>
     <use xlink:href="#DejaVuSans-Oblique-27" transform="translate(502.790105 0.015625)"/>
     <use xlink:href="#DejaVuSans-40" transform="translate(579.792058 0.015625)"/>
    </g>
   </g>
   <g id="text_4">
    <!-- Packed transformer input -->
    <g style="fill: #111827" transform="translate(680.025469 111.6) scale(0.17 -0.17)">
     <defs>
      <path id="DejaVuSans-Bold-50" d="M 3781 2919
Q 3994 3244 4286 3414
Q 4578 3584 4928 3584
Q 5531 3584 5847 3212
Q 6163 2841 6163 2131
L 6163 0
L 5038 0
L 5038 1825
Q 5041 1866 5042 1909
Q 5044 1953 5044 2034
Q 5044 2406 4934 2573
Q 4825 2741 4581 2741
Q 4263 2741 4089 2478
Q 3916 2216 3909 1719
L 3909 0
L 2784 0
L 2784 1825
Q 2784 2406 2684 2573
Q 2584 2741 2328 2741
Q 2006 2741 1831 2477
Q 1656 2213 1656 1722
L 1656 0
L 531 0
L 531 3500
L 1656 3500
L 1656 2988
Q 1863 3284 2130 3434
Q 2397 3584 2719 3584
Q 3081 3584 3359 3409
Q 3638 3234 3781 2919
z
" transform="scale(0.015625)"/>
     </defs>
     <use xlink:href="#DejaVuSans-Bold-33"/>
     <use xlink:href="#DejaVuSans-Bold-44" transform="translate(70.609375 0)"/>
     <use xlink:href="#DejaVuSans-Bold-46" transform="translate(138.09375 0)"/>
     <use xlink:href="#DejaVuSans-Bold-4e" transform="translate(197.375 0)"/>
     <use xlink:href="#DejaVuSans-Bold-48" transform="translate(261.1875 0)"/>
     <use xlink:href="#DejaVuSans-Bold-47" transform="translate(329.015625 0)"/>
     <use xlink:href="#DejaVuSans-Bold-3" transform="translate(400.59375 0)"/>
     <use xlink:href="#DejaVuSans-Bold-57" transform="translate(435.40625 0)"/>
     <use xlink:href="#DejaVuSans-Bold-55" transform="translate(483.203125 0)"/>
     <use xlink:href="#DejaVuSans-Bold-44" transform="translate(532.515625 0)"/>
     <use xlink:href="#DejaVuSans-Bold-51" transform="translate(600 0)"/>
     <use xlink:href="#DejaVuSans-Bold-56" transform="translate(671.1875 0)"/>
     <use xlink:href="#DejaVuSans-Bold-49" transform="translate(730.703125 0)"/>
     <use xlink:href="#DejaVuSans-Bold-52" transform="translate(774.203125 0)"/>
     <use xlink:href="#DejaVuSans-Bold-55" transform="translate(842.90625 0)"/>
     <use xlink:href="#DejaVuSans-Bold-50" transform="translate(892.21875 0)"/>
     <use xlink:href="#DejaVuSans-Bold-48" transform="translate(996.421875 0)"/>
     <use xlink:href="#DejaVuSans-Bold-55" transform="translate(1064.25 0)"/>
     <use xlink:href="#DejaVuSans-Bold-3" transform="translate(1113.5625 0)"/>
     <use xlink:href="#DejaVuSans-Bold-4c" transform="translate(1148.375 0)"/>
     <use xlink:href="#DejaVuSans-Bold-51" transform="translate(1182.65625 0)"/>
     <use xlink:href="#DejaVuSans-Bold-53" transform="translate(1253.84375 0)"/>
     <use xlink:href="#DejaVuSans-Bold-58" transform="translate(1325.421875 0)"/>
     <use xlink:href="#DejaVuSans-Bold-57" transform="translate(1396.609375 0)"/>
    </g>
   </g>
   <g id="text_5">
    <!-- [Σᵢ Lᵢ, D] -->
    <g style="fill: #111827" transform="translate(768.372344 145.44) scale(0.17 -0.17)">
     <defs>
      <path id="DejaVuSans-337" d="M 1353 531
L 3634 531
L 3634 0
L 628 0
L 628 531
L 2125 2481
L 628 4134
L 628 4666
L 3578 4666
L 3578 4134
L 1353 4134
L 2850 2494
L 1353 531
z
" transform="scale(0.015625)"/>
      <path id="DejaVuSans-8c4" d="M 381 1959
L 744 1959
L 744 0
L 381 0
L 381 1959
z
M 381 2721
L 744 2721
L 744 2315
L 381 2315
L 381 2721
z
" transform="scale(0.015625)"/>
      <path id="DejaVuSans-3" transform="scale(0.015625)"/>
      <path id="DejaVuSans-2f" d="M 628 4666
L 1259 4666
L 1259 531
L 3531 531
L 3531 0
L 628 0
L 628 4666
z
" transform="scale(0.015625)"/>
      <path id="DejaVuSans-27" d="M 1259 4147
L 1259 519
L 2022 519
Q 2988 519 3436 956
Q 3884 1394 3884 2338
Q 3884 3275 3436 3711
Q 2988 4147 2022 4147
L 1259 4147
z
M 628 4666
L 1925 4666
Q 3281 4666 3915 4102
Q 4550 3538 4550 2338
Q 4550 1131 3912 565
Q 3275 0 1925 0
L 628 0
L 628 4666
z
" transform="scale(0.015625)"/>
     </defs>
     <use xlink:href="#DejaVuSans-3e"/>
     <use xlink:href="#DejaVuSans-337" transform="translate(39.015625 0)"/>
     <use xlink:href="#DejaVuSans-8c4" transform="translate(102.203125 0)"/>
     <use xlink:href="#DejaVuSans-3" transform="translate(120.078125 0)"/>
     <use xlink:href="#DejaVuSans-2f" transform="translate(151.859375 0)"/>
     <use xlink:href="#DejaVuSans-8c4" transform="translate(207.578125 0)"/>
     <use xlink:href="#DejaVuSans-f" transform="translate(225.453125 0)"/>
     <use xlink:href="#DejaVuSans-3" transform="translate(257.234375 0)"/>
     <use xlink:href="#DejaVuSans-27" transform="translate(289.015625 0)"/>
     <use xlink:href="#DejaVuSans-40" transform="translate(366.015625 0)"/>
    </g>
   </g>
   <g id="text_6">
    <!-- $r_0$ -->
    <g style="fill: #111827" transform="translate(53.02 240.635313) scale(0.2 -0.2)">
     <defs>
      <path id="DejaVuSans-Oblique-55" d="M 2853 2969
Q 2766 3016 2653 3041
Q 2541 3066 2413 3066
Q 1953 3066 1609 2717
Q 1266 2369 1153 1784
L 800 0
L 225 0
L 909 3500
L 1484 3500
L 1375 2956
Q 1603 3259 1920 3421
Q 2238 3584 2597 3584
Q 2691 3584 2781 3573
Q 2872 3563 2963 3538
L 2853 2969
z
" transform="scale(0.015625)"/>
      <path id="DejaVuSans-13" d="M 2034 4250
Q 1547 4250 1301 3770
Q 1056 3291 1056 2328
Q 1056 1369 1301 889
Q 1547 409 2034 409
Q 2525 409 2770 889
Q 3016 1369 3016 2328
Q 3016 3291 2770 3770
Q 2525 4250 2034 4250
z
M 2034 4750
Q 2819 4750 3233 4129
Q 3647 3509 3647 2328
Q 3647 1150 3233 529
Q 2819 -91 2034 -91
Q 1250 -91 836 529
Q 422 1150 422 2328
Q 422 3509 836 4129
Q 1250 4750 2034 4750
z
" transform="scale(0.015625)"/>
     </defs>
     <use xlink:href="#DejaVuSans-Oblique-55"/>
     <use xlink:href="#DejaVuSans-13" transform="translate(41.113281 -14.999951) scale(0.7)"/>
    </g>
   </g>
   <g id="text_7">
    <!-- $r_1$ -->
    <g style="fill: #111827" transform="translate(53.02 348.635312) scale(0.2 -0.2)">
     <defs>
      <path id="DejaVuSans-14" d="M 794 531
L 1825 531
L 1825 4091
L 703 3866
L 703 4441
L 1819 4666
L 2450 4666
L 2450 531
L 3481 531
L 3481 0
L 794 0
L 794 531
z
" transform="scale(0.015625)"/>
     </defs>
     <use xlink:href="#DejaVuSans-Oblique-55"/>
     <use xlink:href="#DejaVuSans-14" transform="translate(41.113281 -14.999951) scale(0.7)"/>
    </g>
   </g>
   <g id="text_8">
    <!-- $r_2$ -->
    <g style="fill: #111827" transform="translate(53.02 456.635312) scale(0.2 -0.2)">
     <defs>
      <path id="DejaVuSans-15" d="M 1228 531
L 3431 531
L 3431 0
L 469 0
L 469 531
Q 828 903 1448 1529
Q 2069 2156 2228 2338
Q 2531 2678 2651 2914
Q 2772 3150 2772 3378
Q 2772 3750 2511 3984
Q 2250 4219 1831 4219
Q 1534 4219 1204 4116
Q 875 4013 500 3803
L 500 4441
Q 881 4594 1212 4672
Q 1544 4750 1819 4750
Q 2544 4750 2975 4387
Q 3406 4025 3406 3419
Q 3406 3131 3298 2873
Q 3191 2616 2906 2266
Q 2828 2175 2409 1742
Q 1991 1309 1228 531
z
" transform="scale(0.015625)"/>
     </defs>
     <use xlink:href="#DejaVuSans-Oblique-55"/>
     <use xlink:href="#DejaVuSans-15" transform="translate(41.113281 -14.999951) scale(0.7)"/>
    </g>
   </g>
   <g id="line2d_2">
    <path d="M 876.24 491.04
L 876.24 168.48
" clip-path="url(#p7b36b6b903)" style="fill: none; stroke: #7e22ce; stroke-width: 1.25; stroke-linecap: square"/>
   </g>
   <g id="line2d_3">
    <path d="M 868.32 168.48
L 884.16 168.48
" clip-path="url(#p7b36b6b903)" style="fill: none; stroke: #7e22ce; stroke-width: 1.25; stroke-linecap: square"/>
   </g>
   <g id="line2d_4">
    <path d="M 868.32 273.932308
L 884.16 273.932308
" clip-path="url(#p7b36b6b903)" style="fill: none; stroke: #7e22ce; stroke-width: 1.25; stroke-linecap: square"/>
   </g>
   <g id="line2d_5">
    <path d="M 868.32 413.501538
L 884.16 413.501538
" clip-path="url(#p7b36b6b903)" style="fill: none; stroke: #7e22ce; stroke-width: 1.25; stroke-linecap: square"/>
   </g>
   <g id="line2d_6">
    <path d="M 868.32 491.04
L 884.16 491.04
" clip-path="url(#p7b36b6b903)" style="fill: none; stroke: #7e22ce; stroke-width: 1.25; stroke-linecap: square"/>
   </g>
   <g id="text_9">
    <!-- cu_seqlens -->
    <g style="fill: #7e22ce" transform="translate(912.24 324.496953) scale(0.145 -0.145)">
     <defs>
      <path id="DejaVuSans-46" d="M 3122 3366
L 3122 2828
Q 2878 2963 2633 3030
Q 2388 3097 2138 3097
Q 1578 3097 1268 2742
Q 959 2388 959 1747
Q 959 1106 1268 751
Q 1578 397 2138 397
Q 2388 397 2633 464
Q 2878 531 3122 666
L 3122 134
Q 2881 22 2623 -34
Q 2366 -91 2075 -91
Q 1284 -91 818 406
Q 353 903 353 1747
Q 353 2603 823 3093
Q 1294 3584 2113 3584
Q 2378 3584 2631 3529
Q 2884 3475 3122 3366
z
" transform="scale(0.015625)"/>
      <path id="DejaVuSans-58" d="M 544 1381
L 544 3500
L 1119 3500
L 1119 1403
Q 1119 906 1312 657
Q 1506 409 1894 409
Q 2359 409 2629 706
Q 2900 1003 2900 1516
L 2900 3500
L 3475 3500
L 3475 0
L 2900 0
L 2900 538
Q 2691 219 2414 64
Q 2138 -91 1772 -91
Q 1169 -91 856 284
Q 544 659 544 1381
z
M 1991 3584
L 1991 3584
z
" transform="scale(0.015625)"/>
      <path id="DejaVuSans-42" d="M 3263 -1063
L 3263 -1509
L -63 -1509
L -63 -1063
L 3263 -1063
z
" transform="scale(0.015625)"/>
      <path id="DejaVuSans-56" d="M 2834 3397
L 2834 2853
Q 2591 2978 2328 3040
Q 2066 3103 1784 3103
Q 1356 3103 1142 2972
Q 928 2841 928 2578
Q 928 2378 1081 2264
Q 1234 2150 1697 2047
L 1894 2003
Q 2506 1872 2764 1633
Q 3022 1394 3022 966
Q 3022 478 2636 193
Q 2250 -91 1575 -91
Q 1294 -91 989 -36
Q 684 19 347 128
L 347 722
Q 666 556 975 473
Q 1284 391 1588 391
Q 1994 391 2212 530
Q 2431 669 2431 922
Q 2431 1156 2273 1281
Q 2116 1406 1581 1522
L 1381 1569
Q 847 1681 609 1914
Q 372 2147 372 2553
Q 372 3047 722 3315
Q 1072 3584 1716 3584
Q 2034 3584 2315 3537
Q 2597 3491 2834 3397
z
" transform="scale(0.015625)"/>
      <path id="DejaVuSans-48" d="M 3597 1894
L 3597 1613
L 953 1613
Q 991 1019 1311 708
Q 1631 397 2203 397
Q 2534 397 2845 478
Q 3156 559 3463 722
L 3463 178
Q 3153 47 2828 -22
Q 2503 -91 2169 -91
Q 1331 -91 842 396
Q 353 884 353 1716
Q 353 2575 817 3079
Q 1281 3584 2069 3584
Q 2775 3584 3186 3129
Q 3597 2675 3597 1894
z
M 3022 2063
Q 3016 2534 2758 2815
Q 2500 3097 2075 3097
Q 1594 3097 1305 2825
Q 1016 2553 972 2059
L 3022 2063
z
" transform="scale(0.015625)"/>
      <path id="DejaVuSans-54" d="M 947 1747
Q 947 1113 1208 752
Q 1469 391 1925 391
Q 2381 391 2643 752
Q 2906 1113 2906 1747
Q 2906 2381 2643 2742
Q 2381 3103 1925 3103
Q 1469 3103 1208 2742
Q 947 2381 947 1747
z
M 2906 525
Q 2725 213 2448 61
Q 2172 -91 1784 -91
Q 1150 -91 751 415
Q 353 922 353 1747
Q 353 2572 751 3078
Q 1150 3584 1784 3584
Q 2172 3584 2448 3432
Q 2725 3281 2906 2969
L 2906 3500
L 3481 3500
L 3481 -1331
L 2906 -1331
L 2906 525
z
" transform="scale(0.015625)"/>
      <path id="DejaVuSans-4f" d="M 603 4863
L 1178 4863
L 1178 0
L 603 0
L 603 4863
z
" transform="scale(0.015625)"/>
      <path id="DejaVuSans-51" d="M 3513 2113
L 3513 0
L 2938 0
L 2938 2094
Q 2938 2591 2744 2837
Q 2550 3084 2163 3084
Q 1697 3084 1428 2787
Q 1159 2491 1159 1978
L 1159 0
L 581 0
L 581 3500
L 1159 3500
L 1159 2956
Q 1366 3272 1645 3428
Q 1925 3584 2291 3584
Q 2894 3584 3203 3211
Q 3513 2838 3513 2113
z
" transform="scale(0.015625)"/>
     </defs>
     <use xlink:href="#DejaVuSans-46"/>
     <use xlink:href="#DejaVuSans-58" transform="translate(54.984375 0)"/>
     <use xlink:href="#DejaVuSans-42" transform="translate(118.359375 0)"/>
     <use xlink:href="#DejaVuSans-56" transform="translate(168.359375 0)"/>
     <use xlink:href="#DejaVuSans-48" transform="translate(220.453125 0)"/>
     <use xlink:href="#DejaVuSans-54" transform="translate(281.984375 0)"/>
     <use xlink:href="#DejaVuSans-4f" transform="translate(345.46875 0)"/>
     <use xlink:href="#DejaVuSans-48" transform="translate(373.25 0)"/>
     <use xlink:href="#DejaVuSans-51" transform="translate(434.78125 0)"/>
     <use xlink:href="#DejaVuSans-56" transform="translate(498.15625 0)"/>
    </g>
    <!-- [0, L₀, L₀ + L₁, L₀ + L₁ + L₂] -->
    <g style="fill: #7e22ce" transform="translate(912.24 343.375273) scale(0.145 -0.145)">
     <defs>
      <path id="DejaVuSans-b5b" d="M 1781 2115
Q 1625 2384 1309 2384
Q 994 2384 838 2115
Q 678 1846 678 1309
Q 678 768 838 500
Q 994 231 1309 231
Q 1625 231 1781 500
Q 1941 768 1941 1309
Q 1941 1846 1781 2115
z
M 1309 2662
Q 1813 2662 2078 2315
Q 2344 1968 2344 1309
Q 2344 646 2078 299
Q 1813 -47 1309 -47
Q 803 -47 537 299
Q 272 646 272 1309
Q 272 1968 537 2315
Q 803 2662 1309 2662
z
" transform="scale(0.015625)"/>
      <path id="DejaVuSans-e" d="M 2944 4013
L 2944 2272
L 4684 2272
L 4684 1741
L 2944 1741
L 2944 0
L 2419 0
L 2419 1741
L 678 1741
L 678 2272
L 2419 2272
L 2419 4013
L 2944 4013
z
" transform="scale(0.015625)"/>
      <path id="DejaVuSans-b5c" d="M 488 343
L 1125 343
L 1125 2253
L 428 2125
L 428 2487
L 1147 2609
L 1575 2609
L 1575 343
L 2216 343
L 2216 0
L 488 0
L 488 343
z
" transform="scale(0.015625)"/>
      <path id="DejaVuSans-b5d" d="M 838 356
L 2163 356
L 2163 0
L 294 0
L 294 343
Q 400 440 597 615
Q 1672 1568 1672 1862
Q 1672 2068 1509 2194
Q 1347 2321 1081 2321
Q 919 2321 728 2266
Q 538 2212 313 2103
L 313 2487
Q 553 2575 761 2618
Q 969 2662 1147 2662
Q 1600 2662 1872 2456
Q 2144 2250 2144 1912
Q 2144 1478 1109 590
Q 934 440 838 356
z
" transform="scale(0.015625)"/>
     </defs>
     <use xlink:href="#DejaVuSans-3e"/>
     <use xlink:href="#DejaVuSans-13" transform="translate(39.015625 0)"/>
     <use xlink:href="#DejaVuSans-f" transform="translate(102.640625 0)"/>
     <use xlink:href="#DejaVuSans-3" transform="translate(134.421875 0)"/>
     <use xlink:href="#DejaVuSans-2f" transform="translate(166.203125 0)"/>
     <use xlink:href="#DejaVuSans-b5b" transform="translate(221.921875 0)"/>
     <use xlink:href="#DejaVuSans-f" transform="translate(262.015625 0)"/>
     <use xlink:href="#DejaVuSans-3" transform="translate(293.796875 0)"/>
     <use xlink:href="#DejaVuSans-2f" transform="translate(325.578125 0)"/>
     <use xlink:href="#DejaVuSans-b5b" transform="translate(381.296875 0)"/>
     <use xlink:href="#DejaVuSans-3" transform="translate(421.390625 0)"/>
     <use xlink:href="#DejaVuSans-e" transform="translate(453.171875 0)"/>
     <use xlink:href="#DejaVuSans-3" transform="translate(536.96875 0)"/>
     <use xlink:href="#DejaVuSans-2f" transform="translate(568.75 0)"/>
     <use xlink:href="#DejaVuSans-b5c" transform="translate(624.46875 0)"/>
     <use xlink:href="#DejaVuSans-f" transform="translate(664.5625 0)"/>
     <use xlink:href="#DejaVuSans-3" transform="translate(696.34375 0)"/>
     <use xlink:href="#DejaVuSans-2f" transform="translate(728.125 0)"/>
     <use xlink:href="#DejaVuSans-b5b" transform="translate(783.84375 0)"/>
     <use xlink:href="#DejaVuSans-3" transform="translate(823.9375 0)"/>
     <use xlink:href="#DejaVuSans-e" transform="translate(855.71875 0)"/>
     <use xlink:href="#DejaVuSans-3" transform="translate(939.515625 0)"/>
     <use xlink:href="#DejaVuSans-2f" transform="translate(971.296875 0)"/>
     <use xlink:href="#DejaVuSans-b5c" transform="translate(1027.015625 0)"/>
     <use xlink:href="#DejaVuSans-3" transform="translate(1067.109375 0)"/>
     <use xlink:href="#DejaVuSans-e" transform="translate(1098.890625 0)"/>
     <use xlink:href="#DejaVuSans-3" transform="translate(1182.6875 0)"/>
     <use xlink:href="#DejaVuSans-2f" transform="translate(1214.46875 0)"/>
     <use xlink:href="#DejaVuSans-b5d" transform="translate(1270.1875 0)"/>
     <use xlink:href="#DejaVuSans-40" transform="translate(1310.28125 0)"/>
    </g>
   </g>
   <g id="text_10">
    <!-- position_ids restart at 0 -->
    <g style="fill: #7e22ce" transform="translate(928.08 423.318438) scale(0.14 -0.14)">
     <defs>
      <path id="DejaVuSans-53" d="M 1159 525
L 1159 -1331
L 581 -1331
L 581 3500
L 1159 3500
L 1159 2969
Q 1341 3281 1617 3432
Q 1894 3584 2278 3584
Q 2916 3584 3314 3078
Q 3713 2572 3713 1747
Q 3713 922 3314 415
Q 2916 -91 2278 -91
Q 1894 -91 1617 61
Q 1341 213 1159 525
z
M 3116 1747
Q 3116 2381 2855 2742
Q 2594 3103 2138 3103
Q 1681 3103 1420 2742
Q 1159 2381 1159 1747
Q 1159 1113 1420 752
Q 1681 391 2138 391
Q 2594 391 2855 752
Q 3116 1113 3116 1747
z
" transform="scale(0.015625)"/>
      <path id="DejaVuSans-52" d="M 1959 3097
Q 1497 3097 1228 2736
Q 959 2375 959 1747
Q 959 1119 1226 758
Q 1494 397 1959 397
Q 2419 397 2687 759
Q 2956 1122 2956 1747
Q 2956 2369 2687 2733
Q 2419 3097 1959 3097
z
M 1959 3584
Q 2709 3584 3137 3096
Q 3566 2609 3566 1747
Q 3566 888 3137 398
Q 2709 -91 1959 -91
Q 1206 -91 779 398
Q 353 888 353 1747
Q 353 2609 779 3096
Q 1206 3584 1959 3584
z
" transform="scale(0.015625)"/>
      <path id="DejaVuSans-4c" d="M 603 3500
L 1178 3500
L 1178 0
L 603 0
L 603 3500
z
M 603 4863
L 1178 4863
L 1178 4134
L 603 4134
L 603 4863
z
" transform="scale(0.015625)"/>
      <path id="DejaVuSans-57" d="M 1172 4494
L 1172 3500
L 2356 3500
L 2356 3053
L 1172 3053
L 1172 1153
Q 1172 725 1289 603
Q 1406 481 1766 481
L 2356 481
L 2356 0
L 1766 0
Q 1100 0 847 248
Q 594 497 594 1153
L 594 3053
L 172 3053
L 172 3500
L 594 3500
L 594 4494
L 1172 4494
z
" transform="scale(0.015625)"/>
      <path id="DejaVuSans-47" d="M 2906 2969
L 2906 4863
L 3481 4863
L 3481 0
L 2906 0
L 2906 525
Q 2725 213 2448 61
Q 2172 -91 1784 -91
Q 1150 -91 751 415
Q 353 922 353 1747
Q 353 2572 751 3078
Q 1150 3584 1784 3584
Q 2172 3584 2448 3432
Q 2725 3281 2906 2969
z
M 947 1747
Q 947 1113 1208 752
Q 1469 391 1925 391
Q 2381 391 2643 752
Q 2906 1113 2906 1747
Q 2906 2381 2643 2742
Q 2381 3103 1925 3103
Q 1469 3103 1208 2742
Q 947 2381 947 1747
z
" transform="scale(0.015625)"/>
      <path id="DejaVuSans-55" d="M 2631 2963
Q 2534 3019 2420 3045
Q 2306 3072 2169 3072
Q 1681 3072 1420 2755
Q 1159 2438 1159 1844
L 1159 0
L 581 0
L 581 3500
L 1159 3500
L 1159 2956
Q 1341 3275 1631 3429
Q 1922 3584 2338 3584
Q 2397 3584 2469 3576
Q 2541 3569 2628 3553
L 2631 2963
z
" transform="scale(0.015625)"/>
     </defs>
     <use xlink:href="#DejaVuSans-53"/>
     <use xlink:href="#DejaVuSans-52" transform="translate(63.484375 0)"/>
     <use xlink:href="#DejaVuSans-56" transform="translate(124.671875 0)"/>
     <use xlink:href="#DejaVuSans-4c" transform="translate(176.765625 0)"/>
     <use xlink:href="#DejaVuSans-57" transform="translate(204.546875 0)"/>
     <use xlink:href="#DejaVuSans-4c" transform="translate(243.75 0)"/>
     <use xlink:href="#DejaVuSans-52" transform="translate(271.53125 0)"/>
     <use xlink:href="#DejaVuSans-51" transform="translate(332.71875 0)"/>
     <use xlink:href="#DejaVuSans-42" transform="translate(396.09375 0)"/>
     <use xlink:href="#DejaVuSans-4c" transform="translate(446.09375 0)"/>
     <use xlink:href="#DejaVuSans-47" transform="translate(473.875 0)"/>
     <use xlink:href="#DejaVuSans-56" transform="translate(537.359375 0)"/>
     <use xlink:href="#DejaVuSans-3" transform="translate(589.453125 0)"/>
     <use xlink:href="#DejaVuSans-55" transform="translate(621.234375 0)"/>
     <use xlink:href="#DejaVuSans-48" transform="translate(660.140625 0)"/>
     <use xlink:href="#DejaVuSans-56" transform="translate(721.671875 0)"/>
     <use xlink:href="#DejaVuSans-57" transform="translate(773.765625 0)"/>
     <use xlink:href="#DejaVuSans-44" transform="translate(812.96875 0)"/>
     <use xlink:href="#DejaVuSans-55" transform="translate(874.25 0)"/>
     <use xlink:href="#DejaVuSans-57" transform="translate(915.359375 0)"/>
     <use xlink:href="#DejaVuSans-3" transform="translate(954.5625 0)"/>
     <use xlink:href="#DejaVuSans-44" transform="translate(986.34375 0)"/>
     <use xlink:href="#DejaVuSans-57" transform="translate(1047.625 0)"/>
     <use xlink:href="#DejaVuSans-3" transform="translate(1086.828125 0)"/>
     <use xlink:href="#DejaVuSans-13" transform="translate(1118.609375 0)"/>
    </g>
    <!-- per request -->
    <g style="fill: #7e22ce" transform="translate(928.08 440.609531) scale(0.14 -0.14)">
     <use xlink:href="#DejaVuSans-53"/>
     <use xlink:href="#DejaVuSans-48" transform="translate(63.484375 0)"/>
     <use xlink:href="#DejaVuSans-55" transform="translate(125.015625 0)"/>
     <use xlink:href="#DejaVuSans-3" transform="translate(166.125 0)"/>
     <use xlink:href="#DejaVuSans-55" transform="translate(197.90625 0)"/>
     <use xlink:href="#DejaVuSans-48" transform="translate(236.8125 0)"/>
     <use xlink:href="#DejaVuSans-54" transform="translate(298.34375 0)"/>
     <use xlink:href="#DejaVuSans-58" transform="translate(361.828125 0)"/>
     <use xlink:href="#DejaVuSans-48" transform="translate(425.203125 0)"/>
     <use xlink:href="#DejaVuSans-56" transform="translate(486.734375 0)"/>
     <use xlink:href="#DejaVuSans-57" transform="translate(538.828125 0)"/>
    </g>
   </g>
   <g id="text_11">
    <!-- pack valid prefixes -->
    <g style="fill: #111111" transform="translate(528.38375 159.84) scale(0.14 -0.14)">
     <defs>
      <path id="DejaVuSans-4e" d="M 581 4863
L 1159 4863
L 1159 1991
L 2875 3500
L 3609 3500
L 1753 1863
L 3688 0
L 2938 0
L 1159 1709
L 1159 0
L 581 0
L 581 4863
z
" transform="scale(0.015625)"/>
      <path id="DejaVuSans-59" d="M 191 3500
L 800 3500
L 1894 563
L 2988 3500
L 3597 3500
L 2284 0
L 1503 0
L 191 3500
z
" transform="scale(0.015625)"/>
      <path id="DejaVuSans-13af" d="M 3431 3500
L 3431 0
L 2853 0
L 2853 3053
L 1275 3053
L 1275 0
L 697 0
L 697 3053
L 147 3053
L 147 3500
L 697 3500
L 697 3744
Q 697 4316 967 4589
Q 1238 4863 1797 4863
L 2375 4863
L 2375 4384
L 1825 4384
Q 1516 4384 1395 4259
Q 1275 4134 1275 3809
L 1275 3500
L 3431 3500
z
M 2853 4856
L 3431 4856
L 3431 4128
L 2853 4128
L 2853 4856
z
" transform="scale(0.015625)"/>
     </defs>
     <use xlink:href="#DejaVuSans-53"/>
     <use xlink:href="#DejaVuSans-44" transform="translate(63.484375 0)"/>
     <use xlink:href="#DejaVuSans-46" transform="translate(124.765625 0)"/>
     <use xlink:href="#DejaVuSans-4e" transform="translate(179.75 0)"/>
     <use xlink:href="#DejaVuSans-3" transform="translate(237.65625 0)"/>
     <use xlink:href="#DejaVuSans-59" transform="translate(269.4375 0)"/>
     <use xlink:href="#DejaVuSans-44" transform="translate(328.625 0)"/>
     <use xlink:href="#DejaVuSans-4f" transform="translate(389.90625 0)"/>
     <use xlink:href="#DejaVuSans-4c" transform="translate(417.6875 0)"/>
     <use xlink:href="#DejaVuSans-47" transform="translate(445.46875 0)"/>
     <use xlink:href="#DejaVuSans-3" transform="translate(508.953125 0)"/>
     <use xlink:href="#DejaVuSans-53" transform="translate(540.734375 0)"/>
     <use xlink:href="#DejaVuSans-55" transform="translate(604.21875 0)"/>
     <use xlink:href="#DejaVuSans-48" transform="translate(643.125 0)"/>
     <use xlink:href="#DejaVuSans-13af" transform="translate(704.65625 0)"/>
     <use xlink:href="#DejaVuSans-5b" transform="translate(767.640625 0)"/>
     <use xlink:href="#DejaVuSans-48" transform="translate(823.75 0)"/>
     <use xlink:href="#DejaVuSans-56" transform="translate(885.28125 0)"/>
    </g>
   </g>
   <g id="text_12">
    <!-- valid prefix -->
    <g style="fill: #111827" transform="translate(96.48 554.047559) scale(0.125 -0.125)">
     <use xlink:href="#DejaVuSans-59"/>
     <use xlink:href="#DejaVuSans-44" transform="translate(59.1875 0)"/>
     <use xlink:href="#DejaVuSans-4f" transform="translate(120.46875 0)"/>
     <use xlink:href="#DejaVuSans-4c" transform="translate(148.25 0)"/>
     <use xlink:href="#DejaVuSans-47" transform="translate(176.03125 0)"/>
     <use xlink:href="#DejaVuSans-3" transform="translate(239.515625 0)"/>
     <use xlink:href="#DejaVuSans-53" transform="translate(271.296875 0)"/>
     <use xlink:href="#DejaVuSans-55" transform="translate(334.78125 0)"/>
     <use xlink:href="#DejaVuSans-48" transform="translate(373.6875 0)"/>
     <use xlink:href="#DejaVuSans-13af" transform="translate(435.21875 0)"/>
     <use xlink:href="#DejaVuSans-5b" transform="translate(498.203125 0)"/>
    </g>
   </g>
   <g id="text_13">
    <!-- padding -->
    <g style="fill: #111827" transform="translate(96.48 600.127559) scale(0.125 -0.125)">
     <defs>
      <path id="DejaVuSans-4a" d="M 2906 1791
Q 2906 2416 2648 2759
Q 2391 3103 1925 3103
Q 1463 3103 1205 2759
Q 947 2416 947 1791
Q 947 1169 1205 825
Q 1463 481 1925 481
Q 2391 481 2648 825
Q 2906 1169 2906 1791
z
M 3481 434
Q 3481 -459 3084 -895
Q 2688 -1331 1869 -1331
Q 1566 -1331 1297 -1286
Q 1028 -1241 775 -1147
L 775 -588
Q 1028 -725 1275 -790
Q 1522 -856 1778 -856
Q 2344 -856 2625 -561
Q 2906 -266 2906 331
L 2906 616
Q 2728 306 2450 153
Q 2172 0 1784 0
Q 1141 0 747 490
Q 353 981 353 1791
Q 353 2603 747 3093
Q 1141 3584 1784 3584
Q 2172 3584 2450 3431
Q 2728 3278 2906 2969
L 2906 3500
L 3481 3500
L 3481 434
z
" transform="scale(0.015625)"/>
     </defs>
     <use xlink:href="#DejaVuSans-53"/>
     <use xlink:href="#DejaVuSans-44" transform="translate(63.484375 0)"/>
     <use xlink:href="#DejaVuSans-47" transform="translate(124.765625 0)"/>
     <use xlink:href="#DejaVuSans-47" transform="translate(188.25 0)"/>
     <use xlink:href="#DejaVuSans-4c" transform="translate(251.734375 0)"/>
     <use xlink:href="#DejaVuSans-51" transform="translate(279.515625 0)"/>
     <use xlink:href="#DejaVuSans-4a" transform="translate(342.890625 0)"/>
    </g>
   </g>
   <g id="PathCollection_1">
    <defs>
     <path id="ma547f5208f" d="M 0 3.24037
C 0.859356 3.24037 1.683631 2.898944 2.291288 2.291288
C 2.898944 1.683631 3.24037 0.859356 3.24037 0
C 3.24037 -0.859356 2.898944 -1.683631 2.291288 -2.291288
C 1.683631 -2.898944 0.859356 -3.24037 0 -3.24037
C -0.859356 -3.24037 -1.683631 -2.898944 -2.291288 -2.291288
C -2.898944 -1.683631 -3.24037 -0.859356 -3.24037 0
C -3.24037 0.859356 -2.898944 1.683631 -2.291288 2.291288
C -1.683631 2.898944 -0.859356 3.24037 0 3.24037
z
" style="stroke: #7e22ce"/>
    </defs>
    <g clip-path="url(#p7b36b6b903)">
     <use xlink:href="#ma547f5208f" x="876.24" y="168.48" style="fill: #7e22ce; stroke: #7e22ce"/>
    </g>
   </g>
   <g id="PathCollection_2">
    <g clip-path="url(#p7b36b6b903)">
     <use xlink:href="#ma547f5208f" x="876.24" y="273.932308" style="fill: #7e22ce; stroke: #7e22ce"/>
    </g>
   </g>
   <g id="PathCollection_3">
    <g clip-path="url(#p7b36b6b903)">
     <use xlink:href="#ma547f5208f" x="876.24" y="413.501538" style="fill: #7e22ce; stroke: #7e22ce"/>
    </g>
   </g>
   <g id="PathCollection_4">
    <g clip-path="url(#p7b36b6b903)">
     <use xlink:href="#ma547f5208f" x="911.52" y="428.4" style="fill: #7e22ce; stroke: #7e22ce"/>
    </g>
   </g>
   <g id="line2d_7">
    <path d="M 349.2 208.08
L 349.2 192.24
L 543.6 192.24
L 543.6 221.206154
" clip-path="url(#p7b36b6b903)" style="fill: none; stroke: #111111; stroke-width: 1.65; stroke-linecap: round"/>
   </g>
   <g id="line2d_8">
    <path d="M 428.4 316.08
L 428.4 300.24
L 565.92 300.24
L 565.92 343.716923
" clip-path="url(#p7b36b6b903)" style="fill: none; stroke: #111111; stroke-width: 1.65; stroke-linecap: round"/>
   </g>
   <g id="line2d_9">
    <path d="M 284.4 424.08
L 284.4 408.24
L 588.24 408.24
L 588.24 452.270769
" clip-path="url(#p7b36b6b903)" style="fill: none; stroke: #111111; stroke-width: 1.65; stroke-linecap: round"/>
   </g>
   <g id="patch_13">
    <path d="M 543.6 221.206154
Q 643.398706 221.206154 741.352656 221.206154
" clip-path="url(#p7b36b6b903)" style="fill: none; stroke: #111111; stroke-width: 1.65; stroke-linecap: round"/>
    <path d="M 736.152656 218.606154
L 741.352656 221.206154
L 736.152656 223.806154
z
" clip-path="url(#p7b36b6b903)" style="fill: #111111; stroke: #111111; stroke-width: 1.65; stroke-linecap: round"/>
   </g>
   <g id="patch_14">
    <path d="M 565.92 343.716923
Q 654.56014 343.716923 741.355523 343.716923
" clip-path="url(#p7b36b6b903)" style="fill: none; stroke: #111111; stroke-width: 1.65; stroke-linecap: round"/>
    <path d="M 736.155523 341.116923
L 741.355523 343.716923
L 736.155523 346.316923
z
" clip-path="url(#p7b36b6b903)" style="fill: #111111; stroke: #111111; stroke-width: 1.65; stroke-linecap: round"/>
   </g>
   <g id="patch_15">
    <path d="M 588.24 452.270769
Q 665.721277 452.270769 741.357798 452.270769
" clip-path="url(#p7b36b6b903)" style="fill: none; stroke: #111111; stroke-width: 1.65; stroke-linecap: round"/>
    <path d="M 736.157798 449.670769
L 741.357798 452.270769
L 736.157798 454.870769
z
" clip-path="url(#p7b36b6b903)" style="fill: #111111; stroke: #111111; stroke-width: 1.65; stroke-linecap: round"/>
   </g>
  </g>
 </g>
 <defs>
  <clipPath id="p7b36b6b903">
   <rect x="0" y="0" width="1152" height="648"/>
  </clipPath>
 </defs>
</svg>
