<?xml version="1.0" encoding="utf-8" standalone="no"?>
<!DOCTYPE svg PUBLIC "-//W3C//DTD SVG 1.1//EN"
  "http://www.w3.org/Graphics/SVG/1.1/DTD/svg11.dtd">
<svg xmlns:xlink="http://www.w3.org/1999/xlink" width="1152pt" height="648pt" viewBox="0 0 1152 648" xmlns="http://www.w3.org/2000/svg" version="1.1">
 <metadata>
  <rdf:RDF xmlns:dc="http://purl.org/dc/elements/1.1/" xmlns:cc="http://creativecommons.org/ns#" xmlns:rdf="http://www.w3.org/1999/02/22-rdf-syntax-ns#">
   <cc:Work>
    <dc:type rdf:resource="http://purl.org/dc/dcmitype/StillImage"/>
    <dc:date>2026-07-19T14:41:01.036029</dc:date>
    <dc:format>image/svg+xml</dc:format>
    <dc:creator>
     <cc:Agent>
      <dc:title>Matplotlib v3.11.0, https://matplotlib.org/</dc:title>
     </cc:Agent>
    </dc:creator>
   </cc:Work>
  </rdf:RDF>
 </metadata>
 <defs>
  <style type="text/css">*{stroke-linejoin: round; stroke-linecap: butt}</style>
 </defs>
 <g id="figure_1">
  <g id="patch_1">
   <path d="M 0 648
L 1152 648
L 1152 0
L 0 0
z
" style="fill: #ffffff"/>
  </g>
  <g id="axes_1">
   <g id="line2d_1">
    <path d="M 167.04 339.413143
L 167.04 103.217143
" style="fill: none; stroke-dasharray: 3.6,3.6; stroke-dashoffset: 0; stroke: #d1d5db; stroke-width: 0.9"/>
   </g>
   <g id="line2d_2">
    <path d="M 178.848 339.413143
L 178.848 103.217143
" style="fill: none; stroke-dasharray: 3.6,3.6; stroke-dashoffset: 0; stroke: #d1d5db; stroke-width: 0.9"/>
   </g>
   <g id="line2d_3">
    <path d="M 544.896 339.413143
L 544.896 103.217143
" style="fill: none; stroke-dasharray: 3.6,3.6; stroke-dashoffset: 0; stroke: #d1d5db; stroke-width: 0.9"/>
   </g>
   <g id="line2d_4">
    <path d="M 556.704 339.413143
L 556.704 103.217143
" style="fill: none; stroke-dasharray: 3.6,3.6; stroke-dashoffset: 0; stroke: #d1d5db; stroke-width: 0.9"/>
   </g>
   <g id="line2d_5">
    <path d="M 922.752 339.413143
L 922.752 103.217143
" style="fill: none; stroke-dasharray: 3.6,3.6; stroke-dashoffset: 0; stroke: #d1d5db; stroke-width: 0.9"/>
   </g>
   <g id="line2d_6">
    <path d="M 1111.68 339.413143
L 1111.68 103.217143
" style="fill: none; stroke-dasharray: 3.6,3.6; stroke-dashoffset: 0; stroke: #d1d5db; stroke-width: 0.9"/>
   </g>
   <g id="patch_2">
    <path d="M 167.04 148.206857
L 544.896 148.206857
L 544.896 108.216
L 167.04 108.216
z
" clip-path="url(#p63e3e9b9a4)" style="fill: #dbeafe; stroke: #1d4ed8; stroke-width: 1.45; stroke-linejoin: miter"/>
   </g>
   <g id="patch_3">
    <path d="M 544.896 148.206857
L 922.752 148.206857
L 922.752 108.216
L 544.896 108.216
z
" clip-path="url(#p63e3e9b9a4)" style="fill: #dbeafe; stroke: #1d4ed8; stroke-width: 1.45; stroke-linejoin: miter"/>
   </g>
   <g id="patch_4">
    <path d="M 922.752 148.206857
L 1111.68 148.206857
L 1111.68 108.216
L 922.752 108.216
z
" clip-path="url(#p63e3e9b9a4)" style="fill: #dbeafe; stroke: #1d4ed8; stroke-width: 1.45; stroke-linejoin: miter"/>
   </g>
   <g id="patch_5">
    <path d="M 167.04 218.815714
L 544.896 218.815714
L 544.896 186.323143
L 167.04 186.323143
z
" clip-path="url(#p63e3e9b9a4)" style="fill: #f3e8ff; stroke: #6b21a8; stroke-width: 1.45; stroke-linejoin: miter"/>
   </g>
   <g id="patch_6">
    <path d="M 178.848 268.179429
L 922.752 268.179429
L 922.752 235.686857
L 178.848 235.686857
z
" clip-path="url(#p63e3e9b9a4)" style="fill: #f3e8ff; stroke: #6b21a8; stroke-width: 1.45; stroke-linejoin: miter"/>
   </g>
   <g id="patch_7">
    <path d="M 556.704 317.543143
L 1111.68 317.543143
L 1111.68 285.050571
L 556.704 285.050571
z
" clip-path="url(#p63e3e9b9a4)" style="fill: #f3e8ff; stroke: #6b21a8; stroke-width: 1.45; stroke-linejoin: miter"/>
   </g>
   <g id="text_1">
    <!-- Q[0:128] -->
    <g style="fill: #111827" transform="translate(325.934719 131.718792) scale(0.135 -0.135)">
     <defs>
      <path id="DejaVuSans-34" d="M 2522 4238
Q 1834 4238 1429 3725
Q 1025 3213 1025 2328
Q 1025 1447 1429 934
Q 1834 422 2522 422
Q 3209 422 3611 934
Q 4013 1447 4013 2328
Q 4013 3213 3611 3725
Q 3209 4238 2522 4238
z
M 3406 84
L 4238 -825
L 3475 -825
L 2784 -78
Q 2681 -84 2626 -87
Q 2572 -91 2522 -91
Q 1538 -91 948 567
Q 359 1225 359 2328
Q 359 3434 948 4092
Q 1538 4750 2522 4750
Q 3503 4750 4090 4092
Q 4678 3434 4678 2328
Q 4678 1516 4351 937
Q 4025 359 3406 84
z
" transform="scale(0.015625)"/>
      <path id="DejaVuSans-3e" d="M 550 4863
L 1875 4863
L 1875 4416
L 1125 4416
L 1125 -397
L 1875 -397
L 1875 -844
L 550 -844
L 550 4863
z
" transform="scale(0.015625)"/>
      <path id="DejaVuSans-13" d="M 2034 4250
Q 1547 4250 1301 3770
Q 1056 3291 1056 2328
Q 1056 1369 1301 889
Q 1547 409 2034 409
Q 2525 409 2770 889
Q 3016 1369 3016 2328
Q 3016 3291 2770 3770
Q 2525 4250 2034 4250
z
M 2034 4750
Q 2819 4750 3233 4129
Q 3647 3509 3647 2328
Q 3647 1150 3233 529
Q 2819 -91 2034 -91
Q 1250 -91 836 529
Q 422 1150 422 2328
Q 422 3509 836 4129
Q 1250 4750 2034 4750
z
" transform="scale(0.015625)"/>
      <path id="DejaVuSans-1d" d="M 750 794
L 1409 794
L 1409 0
L 750 0
L 750 794
z
M 750 3309
L 1409 3309
L 1409 2516
L 750 2516
L 750 3309
z
" transform="scale(0.015625)"/>
      <path id="DejaVuSans-14" d="M 794 531
L 1825 531
L 1825 4091
L 703 3866
L 703 4441
L 1819 4666
L 2450 4666
L 2450 531
L 3481 531
L 3481 0
L 794 0
L 794 531
z
" transform="scale(0.015625)"/>
      <path id="DejaVuSans-15" d="M 1228 531
L 3431 531
L 3431 0
L 469 0
L 469 531
Q 828 903 1448 1529
Q 2069 2156 2228 2338
Q 2531 2678 2651 2914
Q 2772 3150 2772 3378
Q 2772 3750 2511 3984
Q 2250 4219 1831 4219
Q 1534 4219 1204 4116
Q 875 4013 500 3803
L 500 4441
Q 881 4594 1212 4672
Q 1544 4750 1819 4750
Q 2544 4750 2975 4387
Q 3406 4025 3406 3419
Q 3406 3131 3298 2873
Q 3191 2616 2906 2266
Q 2828 2175 2409 1742
Q 1991 1309 1228 531
z
" transform="scale(0.015625)"/>
      <path id="DejaVuSans-1b" d="M 2034 2216
Q 1584 2216 1326 1975
Q 1069 1734 1069 1313
Q 1069 891 1326 650
Q 1584 409 2034 409
Q 2484 409 2743 651
Q 3003 894 3003 1313
Q 3003 1734 2745 1975
Q 2488 2216 2034 2216
z
M 1403 2484
Q 997 2584 770 2862
Q 544 3141 544 3541
Q 544 4100 942 4425
Q 1341 4750 2034 4750
Q 2731 4750 3128 4425
Q 3525 4100 3525 3541
Q 3525 3141 3298 2862
Q 3072 2584 2669 2484
Q 3125 2378 3379 2068
Q 3634 1759 3634 1313
Q 3634 634 3220 271
Q 2806 -91 2034 -91
Q 1263 -91 848 271
Q 434 634 434 1313
Q 434 1759 690 2068
Q 947 2378 1403 2484
z
M 1172 3481
Q 1172 3119 1398 2916
Q 1625 2713 2034 2713
Q 2441 2713 2670 2916
Q 2900 3119 2900 3481
Q 2900 3844 2670 4047
Q 2441 4250 2034 4250
Q 1625 4250 1398 4047
Q 1172 3844 1172 3481
z
" transform="scale(0.015625)"/>
      <path id="DejaVuSans-40" d="M 1947 4863
L 1947 -844
L 622 -844
L 622 -397
L 1369 -397
L 1369 4416
L 622 4416
L 622 4863
L 1947 4863
z
" transform="scale(0.015625)"/>
     </defs>
     <use xlink:href="#DejaVuSans-34"/>
     <use xlink:href="#DejaVuSans-3e" transform="translate(78.71875 0)"/>
     <use xlink:href="#DejaVuSans-13" transform="translate(117.734375 0)"/>
     <use xlink:href="#DejaVuSans-1d" transform="translate(181.359375 0)"/>
     <use xlink:href="#DejaVuSans-14" transform="translate(215.046875 0)"/>
     <use xlink:href="#DejaVuSans-15" transform="translate(278.671875 0)"/>
     <use xlink:href="#DejaVuSans-1b" transform="translate(342.296875 0)"/>
     <use xlink:href="#DejaVuSans-40" transform="translate(405.921875 0)"/>
    </g>
   </g>
   <g id="text_2">
    <!-- Q[128:256] -->
    <g style="fill: #111827" transform="translate(695.201344 131.718792) scale(0.135 -0.135)">
     <defs>
      <path id="DejaVuSans-18" d="M 691 4666
L 3169 4666
L 3169 4134
L 1269 4134
L 1269 2991
Q 1406 3038 1543 3061
Q 1681 3084 1819 3084
Q 2600 3084 3056 2656
Q 3513 2228 3513 1497
Q 3513 744 3044 326
Q 2575 -91 1722 -91
Q 1428 -91 1123 -41
Q 819 9 494 109
L 494 744
Q 775 591 1075 516
Q 1375 441 1709 441
Q 2250 441 2565 725
Q 2881 1009 2881 1497
Q 2881 1984 2565 2268
Q 2250 2553 1709 2553
Q 1456 2553 1204 2497
Q 953 2441 691 2322
L 691 4666
z
" transform="scale(0.015625)"/>
      <path id="DejaVuSans-19" d="M 2113 2584
Q 1688 2584 1439 2293
Q 1191 2003 1191 1497
Q 1191 994 1439 701
Q 1688 409 2113 409
Q 2538 409 2786 701
Q 3034 994 3034 1497
Q 3034 2003 2786 2293
Q 2538 2584 2113 2584
z
M 3366 4563
L 3366 3988
Q 3128 4100 2886 4159
Q 2644 4219 2406 4219
Q 1781 4219 1451 3797
Q 1122 3375 1075 2522
Q 1259 2794 1537 2939
Q 1816 3084 2150 3084
Q 2853 3084 3261 2657
Q 3669 2231 3669 1497
Q 3669 778 3244 343
Q 2819 -91 2113 -91
Q 1303 -91 875 529
Q 447 1150 447 2328
Q 447 3434 972 4092
Q 1497 4750 2381 4750
Q 2619 4750 2861 4703
Q 3103 4656 3366 4563
z
" transform="scale(0.015625)"/>
     </defs>
     <use xlink:href="#DejaVuSans-34"/>
     <use xlink:href="#DejaVuSans-3e" transform="translate(78.71875 0)"/>
     <use xlink:href="#DejaVuSans-14" transform="translate(117.734375 0)"/>
     <use xlink:href="#DejaVuSans-15" transform="translate(181.359375 0)"/>
     <use xlink:href="#DejaVuSans-1b" transform="translate(244.984375 0)"/>
     <use xlink:href="#DejaVuSans-1d" transform="translate(308.609375 0)"/>
     <use xlink:href="#DejaVuSans-15" transform="translate(342.296875 0)"/>
     <use xlink:href="#DejaVuSans-18" transform="translate(405.921875 0)"/>
     <use xlink:href="#DejaVuSans-19" transform="translate(469.546875 0)"/>
     <use xlink:href="#DejaVuSans-40" transform="translate(533.171875 0)"/>
    </g>
   </g>
   <g id="text_3">
    <!-- Q[256:320] -->
    <g style="fill: #111827" transform="translate(978.593344 131.718792) scale(0.135 -0.135)">
     <defs>
      <path id="DejaVuSans-16" d="M 2597 2516
Q 3050 2419 3304 2112
Q 3559 1806 3559 1356
Q 3559 666 3084 287
Q 2609 -91 1734 -91
Q 1441 -91 1130 -33
Q 819 25 488 141
L 488 750
Q 750 597 1062 519
Q 1375 441 1716 441
Q 2309 441 2620 675
Q 2931 909 2931 1356
Q 2931 1769 2642 2001
Q 2353 2234 1838 2234
L 1294 2234
L 1294 2753
L 1863 2753
Q 2328 2753 2575 2939
Q 2822 3125 2822 3475
Q 2822 3834 2567 4026
Q 2313 4219 1838 4219
Q 1578 4219 1281 4162
Q 984 4106 628 3988
L 628 4550
Q 988 4650 1302 4700
Q 1616 4750 1894 4750
Q 2613 4750 3031 4423
Q 3450 4097 3450 3541
Q 3450 3153 3228 2886
Q 3006 2619 2597 2516
z
" transform="scale(0.015625)"/>
     </defs>
     <use xlink:href="#DejaVuSans-34"/>
     <use xlink:href="#DejaVuSans-3e" transform="translate(78.71875 0)"/>
     <use xlink:href="#DejaVuSans-15" transform="translate(117.734375 0)"/>
     <use xlink:href="#DejaVuSans-18" transform="translate(181.359375 0)"/>
     <use xlink:href="#DejaVuSans-19" transform="translate(244.984375 0)"/>
     <use xlink:href="#DejaVuSans-1d" transform="translate(308.609375 0)"/>
     <use xlink:href="#DejaVuSans-16" transform="translate(342.296875 0)"/>
     <use xlink:href="#DejaVuSans-15" transform="translate(405.921875 0)"/>
     <use xlink:href="#DejaVuSans-13" transform="translate(469.546875 0)"/>
     <use xlink:href="#DejaVuSans-40" transform="translate(533.171875 0)"/>
    </g>
   </g>
   <g id="text_4">
    <!-- K/V[0:128] -->
    <g style="fill: #111827" transform="translate(319.930383 206.076792) scale(0.135 -0.135)">
     <defs>
      <path id="DejaVuSans-2e" d="M 628 4666
L 1259 4666
L 1259 2694
L 3353 4666
L 4166 4666
L 1850 2491
L 4331 0
L 3500 0
L 1259 2247
L 1259 0
L 628 0
L 628 4666
z
" transform="scale(0.015625)"/>
      <path id="DejaVuSans-12" d="M 1625 4666
L 2156 4666
L 531 -594
L 0 -594
L 1625 4666
z
" transform="scale(0.015625)"/>
      <path id="DejaVuSans-39" d="M 1831 0
L 50 4666
L 709 4666
L 2188 738
L 3669 4666
L 4325 4666
L 2547 0
L 1831 0
z
" transform="scale(0.015625)"/>
     </defs>
     <use xlink:href="#DejaVuSans-2e"/>
     <use xlink:href="#DejaVuSans-12" transform="translate(65.578125 0)"/>
     <use xlink:href="#DejaVuSans-39" transform="translate(99.265625 0)"/>
     <use xlink:href="#DejaVuSans-3e" transform="translate(167.671875 0)"/>
     <use xlink:href="#DejaVuSans-13" transform="translate(206.6875 0)"/>
     <use xlink:href="#DejaVuSans-1d" transform="translate(270.3125 0)"/>
     <use xlink:href="#DejaVuSans-14" transform="translate(304 0)"/>
     <use xlink:href="#DejaVuSans-15" transform="translate(367.625 0)"/>
     <use xlink:href="#DejaVuSans-1b" transform="translate(431.25 0)"/>
     <use xlink:href="#DejaVuSans-40" transform="translate(494.875 0)"/>
    </g>
   </g>
   <g id="text_5">
    <!-- K/V[4:256] -->
    <g style="fill: #111827" transform="translate(514.762383 255.440506) scale(0.135 -0.135)">
     <defs>
      <path id="DejaVuSans-17" d="M 2419 4116
L 825 1625
L 2419 1625
L 2419 4116
z
M 2253 4666
L 3047 4666
L 3047 1625
L 3713 1625
L 3713 1100
L 3047 1100
L 3047 0
L 2419 0
L 2419 1100
L 313 1100
L 313 1709
L 2253 4666
z
" transform="scale(0.015625)"/>
     </defs>
     <use xlink:href="#DejaVuSans-2e"/>
     <use xlink:href="#DejaVuSans-12" transform="translate(65.578125 0)"/>
     <use xlink:href="#DejaVuSans-39" transform="translate(99.265625 0)"/>
     <use xlink:href="#DejaVuSans-3e" transform="translate(167.671875 0)"/>
     <use xlink:href="#DejaVuSans-17" transform="translate(206.6875 0)"/>
     <use xlink:href="#DejaVuSans-1d" transform="translate(270.3125 0)"/>
     <use xlink:href="#DejaVuSans-15" transform="translate(304 0)"/>
     <use xlink:href="#DejaVuSans-18" transform="translate(367.625 0)"/>
     <use xlink:href="#DejaVuSans-19" transform="translate(431.25 0)"/>
     <use xlink:href="#DejaVuSans-40" transform="translate(494.875 0)"/>
    </g>
   </g>
   <g id="text_6">
    <!-- K/V[132:320] -->
    <g style="fill: #111827" transform="translate(789.565008 304.80422) scale(0.135 -0.135)">
     <use xlink:href="#DejaVuSans-2e"/>
     <use xlink:href="#DejaVuSans-12" transform="translate(65.578125 0)"/>
     <use xlink:href="#DejaVuSans-39" transform="translate(99.265625 0)"/>
     <use xlink:href="#DejaVuSans-3e" transform="translate(167.671875 0)"/>
     <use xlink:href="#DejaVuSans-14" transform="translate(206.6875 0)"/>
     <use xlink:href="#DejaVuSans-16" transform="translate(270.3125 0)"/>
     <use xlink:href="#DejaVuSans-15" transform="translate(333.9375 0)"/>
     <use xlink:href="#DejaVuSans-1d" transform="translate(397.5625 0)"/>
     <use xlink:href="#DejaVuSans-16" transform="translate(431.25 0)"/>
     <use xlink:href="#DejaVuSans-15" transform="translate(494.875 0)"/>
     <use xlink:href="#DejaVuSans-13" transform="translate(558.5 0)"/>
     <use xlink:href="#DejaVuSans-40" transform="translate(622.125 0)"/>
    </g>
   </g>
   <g id="text_7">
    <!-- Query tiles -->
    <g style="fill: #111827" transform="translate(50.424957 131.848694) scale(0.14 -0.14)">
     <defs>
      <path id="DejaVuSans-Bold-34" d="M 2847 -84
L 2753 -84
Q 1600 -84 959 553
Q 319 1191 319 2328
Q 319 3463 958 4106
Q 1597 4750 2719 4750
Q 3853 4750 4486 4112
Q 5119 3475 5119 2328
Q 5119 1541 4783 972
Q 4447 403 3816 116
L 4756 -934
L 3609 -934
L 2847 -84
z
M 2719 3878
Q 2169 3878 1866 3472
Q 1563 3066 1563 2328
Q 1563 1578 1859 1179
Q 2156 781 2719 781
Q 3272 781 3575 1187
Q 3878 1594 3878 2328
Q 3878 3066 3575 3472
Q 3272 3878 2719 3878
z
" transform="scale(0.015625)"/>
      <path id="DejaVuSans-Bold-58" d="M 500 1363
L 500 3500
L 1625 3500
L 1625 3150
Q 1625 2866 1622 2436
Q 1619 2006 1619 1863
Q 1619 1441 1641 1255
Q 1663 1069 1716 984
Q 1784 875 1895 815
Q 2006 756 2150 756
Q 2500 756 2700 1025
Q 2900 1294 2900 1772
L 2900 3500
L 4019 3500
L 4019 0
L 2900 0
L 2900 506
Q 2647 200 2364 54
Q 2081 -91 1741 -91
Q 1134 -91 817 281
Q 500 653 500 1363
z
" transform="scale(0.015625)"/>
      <path id="DejaVuSans-Bold-48" d="M 4031 1759
L 4031 1441
L 1416 1441
Q 1456 1047 1700 850
Q 1944 653 2381 653
Q 2734 653 3104 758
Q 3475 863 3866 1075
L 3866 213
Q 3469 63 3072 -14
Q 2675 -91 2278 -91
Q 1328 -91 801 392
Q 275 875 275 1747
Q 275 2603 792 3093
Q 1309 3584 2216 3584
Q 3041 3584 3536 3087
Q 4031 2591 4031 1759
z
M 2881 2131
Q 2881 2450 2695 2645
Q 2509 2841 2209 2841
Q 1884 2841 1681 2658
Q 1478 2475 1428 2131
L 2881 2131
z
" transform="scale(0.015625)"/>
      <path id="DejaVuSans-Bold-55" d="M 3138 2547
Q 2991 2616 2845 2648
Q 2700 2681 2553 2681
Q 2122 2681 1889 2404
Q 1656 2128 1656 1613
L 1656 0
L 538 0
L 538 3500
L 1656 3500
L 1656 2925
Q 1872 3269 2151 3426
Q 2431 3584 2822 3584
Q 2878 3584 2943 3579
Q 3009 3575 3134 3559
L 3138 2547
z
" transform="scale(0.015625)"/>
      <path id="DejaVuSans-Bold-5c" d="M 78 3500
L 1197 3500
L 2138 1125
L 2938 3500
L 4056 3500
L 2584 -331
Q 2363 -916 2067 -1148
Q 1772 -1381 1288 -1381
L 641 -1381
L 641 -647
L 991 -647
Q 1275 -647 1404 -556
Q 1534 -466 1606 -231
L 1638 -134
L 78 3500
z
" transform="scale(0.015625)"/>
      <path id="DejaVuSans-Bold-3" transform="scale(0.015625)"/>
      <path id="DejaVuSans-Bold-57" d="M 1759 4494
L 1759 3500
L 2913 3500
L 2913 2700
L 1759 2700
L 1759 1216
Q 1759 972 1856 886
Q 1953 800 2241 800
L 2816 800
L 2816 0
L 1856 0
Q 1194 0 917 276
Q 641 553 641 1216
L 641 2700
L 84 2700
L 84 3500
L 641 3500
L 641 4494
L 1759 4494
z
" transform="scale(0.015625)"/>
      <path id="DejaVuSans-Bold-4c" d="M 538 3500
L 1656 3500
L 1656 0
L 538 0
L 538 3500
z
M 538 4863
L 1656 4863
L 1656 3950
L 538 3950
L 538 4863
z
" transform="scale(0.015625)"/>
      <path id="DejaVuSans-Bold-4f" d="M 538 4863
L 1656 4863
L 1656 0
L 538 0
L 538 4863
z
" transform="scale(0.015625)"/>
      <path id="DejaVuSans-Bold-56" d="M 3272 3391
L 3272 2541
Q 2913 2691 2578 2766
Q 2244 2841 1947 2841
Q 1628 2841 1473 2761
Q 1319 2681 1319 2516
Q 1319 2381 1436 2309
Q 1553 2238 1856 2203
L 2053 2175
Q 2913 2066 3209 1816
Q 3506 1566 3506 1031
Q 3506 472 3093 190
Q 2681 -91 1863 -91
Q 1516 -91 1145 -36
Q 775 19 384 128
L 384 978
Q 719 816 1070 734
Q 1422 653 1784 653
Q 2113 653 2278 743
Q 2444 834 2444 1013
Q 2444 1163 2330 1236
Q 2216 1309 1875 1350
L 1678 1375
Q 931 1469 631 1722
Q 331 1975 331 2491
Q 331 3047 712 3315
Q 1094 3584 1881 3584
Q 2191 3584 2531 3537
Q 2872 3491 3272 3391
z
" transform="scale(0.015625)"/>
     </defs>
     <use xlink:href="#DejaVuSans-Bold-34"/>
     <use xlink:href="#DejaVuSans-Bold-58" transform="translate(85.015625 0)"/>
     <use xlink:href="#DejaVuSans-Bold-48" transform="translate(156.203125 0)"/>
     <use xlink:href="#DejaVuSans-Bold-55" transform="translate(224.03125 0)"/>
     <use xlink:href="#DejaVuSans-Bold-5c" transform="translate(273.34375 0)"/>
     <use xlink:href="#DejaVuSans-Bold-3" transform="translate(338.53125 0)"/>
     <use xlink:href="#DejaVuSans-Bold-57" transform="translate(373.34375 0)"/>
     <use xlink:href="#DejaVuSans-Bold-4c" transform="translate(421.140625 0)"/>
     <use xlink:href="#DejaVuSans-Bold-4f" transform="translate(455.421875 0)"/>
     <use xlink:href="#DejaVuSans-Bold-48" transform="translate(489.703125 0)"/>
     <use xlink:href="#DejaVuSans-Bold-56" transform="translate(557.53125 0)"/>
    </g>
   </g>
   <g id="text_8">
    <!-- Source K/V -->
    <g style="fill: #111827" transform="translate(50.774957 253.702482) scale(0.14 -0.14)">
     <defs>
      <path id="DejaVuSans-Bold-36" d="M 3834 4519
L 3834 3531
Q 3450 3703 3084 3790
Q 2719 3878 2394 3878
Q 1963 3878 1756 3759
Q 1550 3641 1550 3391
Q 1550 3203 1689 3098
Q 1828 2994 2194 2919
L 2706 2816
Q 3484 2659 3812 2340
Q 4141 2022 4141 1434
Q 4141 663 3683 286
Q 3225 -91 2284 -91
Q 1841 -91 1394 -6
Q 947 78 500 244
L 500 1259
Q 947 1022 1364 901
Q 1781 781 2169 781
Q 2563 781 2772 912
Q 2981 1044 2981 1288
Q 2981 1506 2839 1625
Q 2697 1744 2272 1838
L 1806 1941
Q 1106 2091 782 2419
Q 459 2747 459 3303
Q 459 4000 909 4375
Q 1359 4750 2203 4750
Q 2588 4750 2994 4692
Q 3400 4634 3834 4519
z
" transform="scale(0.015625)"/>
      <path id="DejaVuSans-Bold-52" d="M 2203 2784
Q 1831 2784 1636 2517
Q 1441 2250 1441 1747
Q 1441 1244 1636 976
Q 1831 709 2203 709
Q 2569 709 2762 976
Q 2956 1244 2956 1747
Q 2956 2250 2762 2517
Q 2569 2784 2203 2784
z
M 2203 3584
Q 3106 3584 3614 3096
Q 4122 2609 4122 1747
Q 4122 884 3614 396
Q 3106 -91 2203 -91
Q 1297 -91 786 396
Q 275 884 275 1747
Q 275 2609 786 3096
Q 1297 3584 2203 3584
z
" transform="scale(0.015625)"/>
      <path id="DejaVuSans-Bold-46" d="M 3366 3391
L 3366 2478
Q 3138 2634 2908 2709
Q 2678 2784 2431 2784
Q 1963 2784 1702 2511
Q 1441 2238 1441 1747
Q 1441 1256 1702 982
Q 1963 709 2431 709
Q 2694 709 2930 787
Q 3166 866 3366 1019
L 3366 103
Q 3103 6 2833 -42
Q 2563 -91 2291 -91
Q 1344 -91 809 395
Q 275 881 275 1747
Q 275 2613 809 3098
Q 1344 3584 2291 3584
Q 2566 3584 2833 3536
Q 3100 3488 3366 3391
z
" transform="scale(0.015625)"/>
      <path id="DejaVuSans-Bold-2e" d="M 588 4666
L 1791 4666
L 1791 2963
L 3525 4666
L 4922 4666
L 2675 2456
L 5153 0
L 3647 0
L 1791 1838
L 1791 0
L 588 0
L 588 4666
z
" transform="scale(0.015625)"/>
      <path id="DejaVuSans-Bold-12" d="M 1644 4666
L 2338 4666
L 691 -594
L 0 -594
L 1644 4666
z
" transform="scale(0.015625)"/>
      <path id="DejaVuSans-Bold-39" d="M 31 4666
L 1241 4666
L 2478 1222
L 3713 4666
L 4922 4666
L 3194 0
L 1759 0
L 31 4666
z
" transform="scale(0.015625)"/>
     </defs>
     <use xlink:href="#DejaVuSans-Bold-36"/>
     <use xlink:href="#DejaVuSans-Bold-52" transform="translate(72.015625 0)"/>
     <use xlink:href="#DejaVuSans-Bold-58" transform="translate(140.71875 0)"/>
     <use xlink:href="#DejaVuSans-Bold-55" transform="translate(211.90625 0)"/>
     <use xlink:href="#DejaVuSans-Bold-46" transform="translate(261.21875 0)"/>
     <use xlink:href="#DejaVuSans-Bold-48" transform="translate(320.5 0)"/>
     <use xlink:href="#DejaVuSans-Bold-3" transform="translate(388.328125 0)"/>
     <use xlink:href="#DejaVuSans-Bold-2e" transform="translate(423.140625 0)"/>
     <use xlink:href="#DejaVuSans-Bold-12" transform="translate(500.625 0)"/>
     <use xlink:href="#DejaVuSans-Bold-39" transform="translate(537.15625 0)"/>
    </g>
    <!-- envelopes -->
    <g style="fill: #111827" transform="translate(56.46027 269.819982) scale(0.14 -0.14)">
     <defs>
      <path id="DejaVuSans-Bold-51" d="M 4056 2131
L 4056 0
L 2931 0
L 2931 347
L 2931 1631
Q 2931 2084 2911 2256
Q 2891 2428 2841 2509
Q 2775 2619 2662 2680
Q 2550 2741 2406 2741
Q 2056 2741 1856 2470
Q 1656 2200 1656 1722
L 1656 0
L 538 0
L 538 3500
L 1656 3500
L 1656 2988
Q 1909 3294 2193 3439
Q 2478 3584 2822 3584
Q 3428 3584 3742 3212
Q 4056 2841 4056 2131
z
" transform="scale(0.015625)"/>
      <path id="DejaVuSans-Bold-59" d="M 97 3500
L 1216 3500
L 2088 1081
L 2956 3500
L 4078 3500
L 2700 0
L 1472 0
L 97 3500
z
" transform="scale(0.015625)"/>
      <path id="DejaVuSans-Bold-53" d="M 1656 506
L 1656 -1331
L 538 -1331
L 538 3500
L 1656 3500
L 1656 2988
Q 1888 3294 2169 3439
Q 2450 3584 2816 3584
Q 3463 3584 3878 3070
Q 4294 2556 4294 1747
Q 4294 938 3878 423
Q 3463 -91 2816 -91
Q 2450 -91 2169 54
Q 1888 200 1656 506
z
M 2400 2772
Q 2041 2772 1848 2508
Q 1656 2244 1656 1747
Q 1656 1250 1848 986
Q 2041 722 2400 722
Q 2759 722 2948 984
Q 3138 1247 3138 1747
Q 3138 2247 2948 2509
Q 2759 2772 2400 2772
z
" transform="scale(0.015625)"/>
     </defs>
     <use xlink:href="#DejaVuSans-Bold-48"/>
     <use xlink:href="#DejaVuSans-Bold-51" transform="translate(67.828125 0)"/>
     <use xlink:href="#DejaVuSans-Bold-59" transform="translate(139.015625 0)"/>
     <use xlink:href="#DejaVuSans-Bold-48" transform="translate(204.203125 0)"/>
     <use xlink:href="#DejaVuSans-Bold-4f" transform="translate(272.03125 0)"/>
     <use xlink:href="#DejaVuSans-Bold-52" transform="translate(306.3125 0)"/>
     <use xlink:href="#DejaVuSans-Bold-53" transform="translate(375.015625 0)"/>
     <use xlink:href="#DejaVuSans-Bold-48" transform="translate(446.59375 0)"/>
     <use xlink:href="#DejaVuSans-Bold-56" transform="translate(514.421875 0)"/>
    </g>
   </g>
   <g id="patch_8">
    <path d="M 355.968 150.202937
Q 355.968 166.761706 355.968 181.86703
" clip-path="url(#p63e3e9b9a4)" style="fill: none; stroke: #111111; stroke-width: 1.3; stroke-linecap: round"/>
    <path d="M 358.368 177.06703
L 355.968 181.86703
L 353.568 177.06703
z
" clip-path="url(#p63e3e9b9a4)" style="fill: #111111; stroke: #111111; stroke-width: 1.3; stroke-linecap: round"/>
   </g>
   <g id="patch_9">
    <path d="M 732.017107 149.070498
Q 642.762096 191.731725 554.818436 233.766165
" clip-path="url(#p63e3e9b9a4)" style="fill: none; stroke: #111111; stroke-width: 1.3; stroke-linecap: round"/>
    <path d="M 560.184151 233.861571
L 554.818436 233.766165
L 558.114189 229.530836
z
" clip-path="url(#p63e3e9b9a4)" style="fill: #111111; stroke: #111111; stroke-width: 1.3; stroke-linecap: round"/>
   </g>
   <g id="patch_10">
    <path d="M 1015.615769 149.403321
Q 926.103945 216.329682 837.756172 282.385705
" clip-path="url(#p63e3e9b9a4)" style="fill: none; stroke: #111111; stroke-width: 1.3; stroke-linecap: round"/>
    <path d="M 843.037592 281.433549
L 837.756172 282.385705
L 840.163298 277.589275
z
" clip-path="url(#p63e3e9b9a4)" style="fill: #111111; stroke: #111111; stroke-width: 1.3; stroke-linecap: round"/>
   </g>
  </g>
  <g id="axes_2">
   <g id="patch_11">
    <path d="M 240.12288 488.74752
L 393.01632 488.74752
Q 410.43456 488.74752 410.43456 485.59824
L 410.43456 456.20496
Q 410.43456 453.05568 393.01632 453.05568
L 240.12288 453.05568
Q 222.70464 453.05568 222.70464 456.20496
L 222.70464 485.59824
Q 222.70464 488.74752 240.12288 488.74752
z
" clip-path="url(#pf281ca2798)" style="fill: #eff6ff; stroke: #1d4ed8; stroke-width: 1.4; stroke-linejoin: miter"/>
   </g>
   <g id="patch_12">
    <path d="M 486.88128 488.74752
L 688.15872 488.74752
Q 705.57696 488.74752 705.57696 485.59824
L 705.57696 456.20496
Q 705.57696 453.05568 688.15872 453.05568
L 486.88128 453.05568
Q 469.46304 453.05568 469.46304 456.20496
L 469.46304 485.59824
Q 469.46304 488.74752 486.88128 488.74752
z
" clip-path="url(#pf281ca2798)" style="fill: #faf5ff; stroke: #6b21a8; stroke-width: 1.4; stroke-linejoin: miter"/>
   </g>
   <g id="patch_13">
    <path d="M 743.31648 488.74752
L 973.62432 488.74752
Q 991.04256 488.74752 991.04256 485.59824
L 991.04256 456.20496
Q 991.04256 453.05568 973.62432 453.05568
L 743.31648 453.05568
Q 725.89824 453.05568 725.89824 456.20496
L 725.89824 485.59824
Q 725.89824 488.74752 743.31648 488.74752
z
" clip-path="url(#pf281ca2798)" style="fill: #faf5ff; stroke: #6b21a8; stroke-width: 1.4; stroke-linejoin: miter"/>
   </g>
   <g id="patch_14">
    <path d="M 419.14368 588.47472
L 755.89632 588.47472
Q 773.31456 588.47472 773.31456 585.32544
L 773.31456 554.18256
Q 773.31456 551.03328 755.89632 551.03328
L 419.14368 551.03328
Q 401.72544 551.03328 401.72544 554.18256
L 401.72544 585.32544
Q 401.72544 588.47472 419.14368 588.47472
z
" clip-path="url(#pf281ca2798)" style="fill: #f3e8ff; stroke: #6b21a8; stroke-width: 1.4; stroke-linejoin: miter"/>
   </g>
   <g id="patch_15">
    <path d="M 318.438042 487.361178
Q 403.194918 519.712574 486.593904 551.545669
" clip-path="url(#pf281ca2798)" style="fill: none; stroke: #111111; stroke-width: 1.3; stroke-linecap: round"/>
    <path d="M 482.965319 547.591763
L 486.593904 551.545669
L 481.253628 552.076194
z
" clip-path="url(#pf281ca2798)" style="fill: #111111; stroke: #111111; stroke-width: 1.3; stroke-linecap: round"/>
   </g>
   <g id="patch_16">
    <path d="M 587.52 488.64855
Q 587.52 519.389165 587.52 548.676336
" clip-path="url(#pf281ca2798)" style="fill: none; stroke: #111111; stroke-width: 1.3; stroke-linecap: round"/>
    <path d="M 589.92 543.876336
L 587.52 548.676336
L 585.12 543.876336
z
" clip-path="url(#pf281ca2798)" style="fill: #111111; stroke: #111111; stroke-width: 1.3; stroke-linecap: round"/>
   </g>
   <g id="patch_17">
    <path d="M 856.601958 487.361178
Q 771.845082 519.712574 688.446096 551.545669
" clip-path="url(#pf281ca2798)" style="fill: none; stroke: #111111; stroke-width: 1.3; stroke-linecap: round"/>
    <path d="M 693.786372 552.076194
L 688.446096 551.545669
L 692.074681 547.591763
z
" clip-path="url(#pf281ca2798)" style="fill: #111111; stroke: #111111; stroke-width: 1.3; stroke-linecap: round"/>
   </g>
   <g id="text_9">
    <!-- Q segments -->
    <g style="fill: #111827" transform="translate(274.739522 474.14867) scale(0.125 -0.125)">
     <defs>
      <path id="DejaVuSans-Bold-4a" d="M 2919 594
Q 2688 288 2409 144
Q 2131 0 1766 0
Q 1125 0 706 504
Q 288 1009 288 1791
Q 288 2575 706 3076
Q 1125 3578 1766 3578
Q 2131 3578 2409 3434
Q 2688 3291 2919 2981
L 2919 3500
L 4044 3500
L 4044 353
Q 4044 -491 3511 -936
Q 2978 -1381 1966 -1381
Q 1638 -1381 1331 -1331
Q 1025 -1281 716 -1178
L 716 -306
Q 1009 -475 1290 -558
Q 1572 -641 1856 -641
Q 2406 -641 2662 -400
Q 2919 -159 2919 353
L 2919 594
z
M 2181 2772
Q 1834 2772 1640 2515
Q 1447 2259 1447 1791
Q 1447 1309 1634 1061
Q 1822 813 2181 813
Q 2531 813 2725 1069
Q 2919 1325 2919 1791
Q 2919 2259 2725 2515
Q 2531 2772 2181 2772
z
" transform="scale(0.015625)"/>
      <path id="DejaVuSans-Bold-50" d="M 3781 2919
Q 3994 3244 4286 3414
Q 4578 3584 4928 3584
Q 5531 3584 5847 3212
Q 6163 2841 6163 2131
L 6163 0
L 5038 0
L 5038 1825
Q 5041 1866 5042 1909
Q 5044 1953 5044 2034
Q 5044 2406 4934 2573
Q 4825 2741 4581 2741
Q 4263 2741 4089 2478
Q 3916 2216 3909 1719
L 3909 0
L 2784 0
L 2784 1825
Q 2784 2406 2684 2573
Q 2584 2741 2328 2741
Q 2006 2741 1831 2477
Q 1656 2213 1656 1722
L 1656 0
L 531 0
L 531 3500
L 1656 3500
L 1656 2988
Q 1863 3284 2130 3434
Q 2397 3584 2719 3584
Q 3081 3584 3359 3409
Q 3638 3234 3781 2919
z
" transform="scale(0.015625)"/>
     </defs>
     <use xlink:href="#DejaVuSans-Bold-34"/>
     <use xlink:href="#DejaVuSans-Bold-3" transform="translate(85.015625 0)"/>
     <use xlink:href="#DejaVuSans-Bold-56" transform="translate(119.828125 0)"/>
     <use xlink:href="#DejaVuSans-Bold-48" transform="translate(179.34375 0)"/>
     <use xlink:href="#DejaVuSans-Bold-4a" transform="translate(247.171875 0)"/>
     <use xlink:href="#DejaVuSans-Bold-50" transform="translate(318.75 0)"/>
     <use xlink:href="#DejaVuSans-Bold-48" transform="translate(422.953125 0)"/>
     <use xlink:href="#DejaVuSans-Bold-51" transform="translate(490.78125 0)"/>
     <use xlink:href="#DejaVuSans-Bold-57" transform="translate(561.96875 0)"/>
     <use xlink:href="#DejaVuSans-Bold-56" transform="translate(609.765625 0)"/>
    </g>
   </g>
   <g id="text_10">
    <!-- gathered K/V segments -->
    <g style="fill: #111827" transform="translate(504.702617 474.149159) scale(0.125 -0.125)">
     <defs>
      <path id="DejaVuSans-Bold-44" d="M 2106 1575
Q 1756 1575 1579 1456
Q 1403 1338 1403 1106
Q 1403 894 1545 773
Q 1688 653 1941 653
Q 2256 653 2472 879
Q 2688 1106 2688 1447
L 2688 1575
L 2106 1575
z
M 3816 1997
L 3816 0
L 2688 0
L 2688 519
Q 2463 200 2181 54
Q 1900 -91 1497 -91
Q 953 -91 614 226
Q 275 544 275 1050
Q 275 1666 698 1953
Q 1122 2241 2028 2241
L 2688 2241
L 2688 2328
Q 2688 2594 2478 2717
Q 2269 2841 1825 2841
Q 1466 2841 1156 2769
Q 847 2697 581 2553
L 581 3406
Q 941 3494 1303 3539
Q 1666 3584 2028 3584
Q 2975 3584 3395 3211
Q 3816 2838 3816 1997
z
" transform="scale(0.015625)"/>
      <path id="DejaVuSans-Bold-4b" d="M 4056 2131
L 4056 0
L 2931 0
L 2931 347
L 2931 1625
Q 2931 2084 2911 2256
Q 2891 2428 2841 2509
Q 2775 2619 2662 2680
Q 2550 2741 2406 2741
Q 2056 2741 1856 2470
Q 1656 2200 1656 1722
L 1656 0
L 538 0
L 538 4863
L 1656 4863
L 1656 2988
Q 1909 3294 2193 3439
Q 2478 3584 2822 3584
Q 3428 3584 3742 3212
Q 4056 2841 4056 2131
z
" transform="scale(0.015625)"/>
      <path id="DejaVuSans-Bold-47" d="M 2919 2988
L 2919 4863
L 4044 4863
L 4044 0
L 2919 0
L 2919 506
Q 2688 197 2409 53
Q 2131 -91 1766 -91
Q 1119 -91 703 423
Q 288 938 288 1747
Q 288 2556 703 3070
Q 1119 3584 1766 3584
Q 2128 3584 2408 3439
Q 2688 3294 2919 2988
z
M 2181 722
Q 2541 722 2730 984
Q 2919 1247 2919 1747
Q 2919 2247 2730 2509
Q 2541 2772 2181 2772
Q 1825 2772 1636 2509
Q 1447 2247 1447 1747
Q 1447 1247 1636 984
Q 1825 722 2181 722
z
" transform="scale(0.015625)"/>
     </defs>
     <use xlink:href="#DejaVuSans-Bold-4a"/>
     <use xlink:href="#DejaVuSans-Bold-44" transform="translate(71.578125 0)"/>
     <use xlink:href="#DejaVuSans-Bold-57" transform="translate(139.0625 0)"/>
     <use xlink:href="#DejaVuSans-Bold-4b" transform="translate(186.859375 0)"/>
     <use xlink:href="#DejaVuSans-Bold-48" transform="translate(258.046875 0)"/>
     <use xlink:href="#DejaVuSans-Bold-55" transform="translate(325.875 0)"/>
     <use xlink:href="#DejaVuSans-Bold-48" transform="translate(375.1875 0)"/>
     <use xlink:href="#DejaVuSans-Bold-47" transform="translate(443.015625 0)"/>
     <use xlink:href="#DejaVuSans-Bold-3" transform="translate(514.59375 0)"/>
     <use xlink:href="#DejaVuSans-Bold-2e" transform="translate(549.40625 0)"/>
     <use xlink:href="#DejaVuSans-Bold-12" transform="translate(626.890625 0)"/>
     <use xlink:href="#DejaVuSans-Bold-39" transform="translate(663.421875 0)"/>
     <use xlink:href="#DejaVuSans-Bold-3" transform="translate(740.8125 0)"/>
     <use xlink:href="#DejaVuSans-Bold-56" transform="translate(775.625 0)"/>
     <use xlink:href="#DejaVuSans-Bold-48" transform="translate(835.140625 0)"/>
     <use xlink:href="#DejaVuSans-Bold-4a" transform="translate(902.96875 0)"/>
     <use xlink:href="#DejaVuSans-Bold-50" transform="translate(974.546875 0)"/>
     <use xlink:href="#DejaVuSans-Bold-48" transform="translate(1078.75 0)"/>
     <use xlink:href="#DejaVuSans-Bold-51" transform="translate(1146.578125 0)"/>
     <use xlink:href="#DejaVuSans-Bold-57" transform="translate(1217.765625 0)"/>
     <use xlink:href="#DejaVuSans-Bold-56" transform="translate(1265.5625 0)"/>
    </g>
   </g>
   <g id="text_11">
    <!-- cu_seqlens_q, cu_seqlens_k -->
    <g style="fill: #111827" transform="translate(762.515322 474.149159) scale(0.125 -0.125)">
     <defs>
      <path id="DejaVuSans-Bold-42" d="M 3200 -916
L 3200 -1509
L 0 -1509
L 0 -916
L 3200 -916
z
" transform="scale(0.015625)"/>
      <path id="DejaVuSans-Bold-54" d="M 2181 2772
Q 1825 2772 1636 2509
Q 1447 2247 1447 1747
Q 1447 1247 1636 984
Q 1825 722 2181 722
Q 2541 722 2730 984
Q 2919 1247 2919 1747
Q 2919 2247 2730 2509
Q 2541 2772 2181 2772
z
M 2919 506
Q 2688 197 2409 53
Q 2131 -91 1766 -91
Q 1119 -91 703 423
Q 288 938 288 1747
Q 288 2556 703 3067
Q 1119 3578 1766 3578
Q 2131 3578 2409 3434
Q 2688 3291 2919 2981
L 2919 3500
L 4044 3500
L 4044 -1331
L 2919 -1331
L 2919 506
z
" transform="scale(0.015625)"/>
      <path id="DejaVuSans-Bold-f" d="M 653 1209
L 1778 1209
L 1778 256
L 1006 -909
L 341 -909
L 653 256
L 653 1209
z
" transform="scale(0.015625)"/>
      <path id="DejaVuSans-Bold-4e" d="M 538 4863
L 1656 4863
L 1656 2216
L 2944 3500
L 4244 3500
L 2534 1894
L 4378 0
L 3022 0
L 1656 1459
L 1656 0
L 538 0
L 538 4863
z
" transform="scale(0.015625)"/>
     </defs>
     <use xlink:href="#DejaVuSans-Bold-46"/>
     <use xlink:href="#DejaVuSans-Bold-58" transform="translate(59.28125 0)"/>
     <use xlink:href="#DejaVuSans-Bold-42" transform="translate(130.46875 0)"/>
     <use xlink:href="#DejaVuSans-Bold-56" transform="translate(180.46875 0)"/>
     <use xlink:href="#DejaVuSans-Bold-48" transform="translate(239.984375 0)"/>
     <use xlink:href="#DejaVuSans-Bold-54" transform="translate(307.8125 0)"/>
     <use xlink:href="#DejaVuSans-Bold-4f" transform="translate(379.390625 0)"/>
     <use xlink:href="#DejaVuSans-Bold-48" transform="translate(413.671875 0)"/>
     <use xlink:href="#DejaVuSans-Bold-51" transform="translate(481.5 0)"/>
     <use xlink:href="#DejaVuSans-Bold-56" transform="translate(552.6875 0)"/>
     <use xlink:href="#DejaVuSans-Bold-42" transform="translate(612.203125 0)"/>
     <use xlink:href="#DejaVuSans-Bold-54" transform="translate(662.203125 0)"/>
     <use xlink:href="#DejaVuSans-Bold-f" transform="translate(733.78125 0)"/>
     <use xlink:href="#DejaVuSans-Bold-3" transform="translate(771.765625 0)"/>
     <use xlink:href="#DejaVuSans-Bold-46" transform="translate(806.578125 0)"/>
     <use xlink:href="#DejaVuSans-Bold-58" transform="translate(865.859375 0)"/>
     <use xlink:href="#DejaVuSans-Bold-42" transform="translate(937.046875 0)"/>
     <use xlink:href="#DejaVuSans-Bold-56" transform="translate(987.046875 0)"/>
     <use xlink:href="#DejaVuSans-Bold-48" transform="translate(1046.5625 0)"/>
     <use xlink:href="#DejaVuSans-Bold-54" transform="translate(1114.390625 0)"/>
     <use xlink:href="#DejaVuSans-Bold-4f" transform="translate(1185.96875 0)"/>
     <use xlink:href="#DejaVuSans-Bold-48" transform="translate(1220.25 0)"/>
     <use xlink:href="#DejaVuSans-Bold-51" transform="translate(1288.078125 0)"/>
     <use xlink:href="#DejaVuSans-Bold-56" transform="translate(1359.265625 0)"/>
     <use xlink:href="#DejaVuSans-Bold-42" transform="translate(1418.78125 0)"/>
     <use xlink:href="#DejaVuSans-Bold-4e" transform="translate(1468.78125 0)"/>
    </g>
   </g>
   <g id="text_12">
    <!-- one varlen FlashAttention call per layer -->
    <g style="fill: #111827" transform="translate(447.715312 573.001559) scale(0.125 -0.125)">
     <defs>
      <path id="DejaVuSans-Bold-29" d="M 588 4666
L 3834 4666
L 3834 3756
L 1791 3756
L 1791 2888
L 3713 2888
L 3713 1978
L 1791 1978
L 1791 0
L 588 0
L 588 4666
z
" transform="scale(0.015625)"/>
      <path id="DejaVuSans-Bold-24" d="M 3419 850
L 1538 850
L 1241 0
L 31 0
L 1759 4666
L 3194 4666
L 4922 0
L 3713 0
L 3419 850
z
M 1838 1716
L 3116 1716
L 2478 3572
L 1838 1716
z
" transform="scale(0.015625)"/>
     </defs>
     <use xlink:href="#DejaVuSans-Bold-52"/>
     <use xlink:href="#DejaVuSans-Bold-51" transform="translate(68.703125 0)"/>
     <use xlink:href="#DejaVuSans-Bold-48" transform="translate(139.890625 0)"/>
     <use xlink:href="#DejaVuSans-Bold-3" transform="translate(207.71875 0)"/>
     <use xlink:href="#DejaVuSans-Bold-59" transform="translate(242.53125 0)"/>
     <use xlink:href="#DejaVuSans-Bold-44" transform="translate(307.71875 0)"/>
     <use xlink:href="#DejaVuSans-Bold-55" transform="translate(375.203125 0)"/>
     <use xlink:href="#DejaVuSans-Bold-4f" transform="translate(424.515625 0)"/>
     <use xlink:href="#DejaVuSans-Bold-48" transform="translate(458.796875 0)"/>
     <use xlink:href="#DejaVuSans-Bold-51" transform="translate(526.625 0)"/>
     <use xlink:href="#DejaVuSans-Bold-3" transform="translate(597.8125 0)"/>
     <use xlink:href="#DejaVuSans-Bold-29" transform="translate(632.625 0)"/>
     <use xlink:href="#DejaVuSans-Bold-4f" transform="translate(700.9375 0)"/>
     <use xlink:href="#DejaVuSans-Bold-44" transform="translate(735.21875 0)"/>
     <use xlink:href="#DejaVuSans-Bold-56" transform="translate(802.703125 0)"/>
     <use xlink:href="#DejaVuSans-Bold-4b" transform="translate(862.21875 0)"/>
     <use xlink:href="#DejaVuSans-Bold-24" transform="translate(933.40625 0)"/>
     <use xlink:href="#DejaVuSans-Bold-57" transform="translate(1010.796875 0)"/>
     <use xlink:href="#DejaVuSans-Bold-57" transform="translate(1058.59375 0)"/>
     <use xlink:href="#DejaVuSans-Bold-48" transform="translate(1106.390625 0)"/>
     <use xlink:href="#DejaVuSans-Bold-51" transform="translate(1174.21875 0)"/>
     <use xlink:href="#DejaVuSans-Bold-57" transform="translate(1245.40625 0)"/>
     <use xlink:href="#DejaVuSans-Bold-4c" transform="translate(1293.203125 0)"/>
     <use xlink:href="#DejaVuSans-Bold-52" transform="translate(1327.484375 0)"/>
     <use xlink:href="#DejaVuSans-Bold-51" transform="translate(1396.1875 0)"/>
     <use xlink:href="#DejaVuSans-Bold-3" transform="translate(1467.375 0)"/>
     <use xlink:href="#DejaVuSans-Bold-46" transform="translate(1502.1875 0)"/>
     <use xlink:href="#DejaVuSans-Bold-44" transform="translate(1561.46875 0)"/>
     <use xlink:href="#DejaVuSans-Bold-4f" transform="translate(1628.953125 0)"/>
     <use xlink:href="#DejaVuSans-Bold-4f" transform="translate(1663.234375 0)"/>
     <use xlink:href="#DejaVuSans-Bold-3" transform="translate(1697.515625 0)"/>
     <use xlink:href="#DejaVuSans-Bold-53" transform="translate(1732.328125 0)"/>
     <use xlink:href="#DejaVuSans-Bold-48" transform="translate(1803.90625 0)"/>
     <use xlink:href="#DejaVuSans-Bold-55" transform="translate(1871.734375 0)"/>
     <use xlink:href="#DejaVuSans-Bold-3" transform="translate(1921.046875 0)"/>
     <use xlink:href="#DejaVuSans-Bold-4f" transform="translate(1955.859375 0)"/>
     <use xlink:href="#DejaVuSans-Bold-44" transform="translate(1990.140625 0)"/>
     <use xlink:href="#DejaVuSans-Bold-5c" transform="translate(2054.546875 0)"/>
     <use xlink:href="#DejaVuSans-Bold-48" transform="translate(2119.734375 0)"/>
     <use xlink:href="#DejaVuSans-Bold-55" transform="translate(2187.5625 0)"/>
    </g>
   </g>
  </g>
  <g id="text_13">
   <!-- Local-causal tiling across 128-token boundaries -->
   <g style="fill: #111827" transform="translate(239.388672 48.156094) scale(0.25 -0.25)">
    <defs>
     <path id="DejaVuSans-Bold-2f" d="M 588 4666
L 1791 4666
L 1791 909
L 3903 909
L 3903 0
L 588 0
L 588 4666
z
" transform="scale(0.015625)"/>
     <path id="DejaVuSans-Bold-10" d="M 347 2297
L 2309 2297
L 2309 1388
L 347 1388
L 347 2297
z
" transform="scale(0.015625)"/>
     <path id="DejaVuSans-Bold-14" d="M 750 831
L 1813 831
L 1813 3847
L 722 3622
L 722 4441
L 1806 4666
L 2950 4666
L 2950 831
L 4013 831
L 4013 0
L 750 0
L 750 831
z
" transform="scale(0.015625)"/>
     <path id="DejaVuSans-Bold-15" d="M 1844 884
L 3897 884
L 3897 0
L 506 0
L 506 884
L 2209 2388
Q 2438 2594 2547 2791
Q 2656 2988 2656 3200
Q 2656 3528 2436 3728
Q 2216 3928 1850 3928
Q 1569 3928 1234 3808
Q 900 3688 519 3450
L 519 4475
Q 925 4609 1322 4679
Q 1719 4750 2100 4750
Q 2938 4750 3402 4381
Q 3866 4013 3866 3353
Q 3866 2972 3669 2642
Q 3472 2313 2841 1759
L 1844 884
z
" transform="scale(0.015625)"/>
     <path id="DejaVuSans-Bold-1b" d="M 2228 2088
Q 1891 2088 1709 1903
Q 1528 1719 1528 1375
Q 1528 1031 1709 848
Q 1891 666 2228 666
Q 2563 666 2741 848
Q 2919 1031 2919 1375
Q 2919 1722 2741 1905
Q 2563 2088 2228 2088
z
M 1350 2484
Q 925 2613 709 2878
Q 494 3144 494 3541
Q 494 4131 934 4440
Q 1375 4750 2228 4750
Q 3075 4750 3515 4442
Q 3956 4134 3956 3541
Q 3956 3144 3739 2878
Q 3522 2613 3097 2484
Q 3572 2353 3814 2058
Q 4056 1763 4056 1313
Q 4056 619 3595 264
Q 3134 -91 2228 -91
Q 1319 -91 855 264
Q 391 619 391 1313
Q 391 1763 633 2058
Q 875 2353 1350 2484
z
M 1631 3419
Q 1631 3141 1786 2991
Q 1941 2841 2228 2841
Q 2509 2841 2662 2991
Q 2816 3141 2816 3419
Q 2816 3697 2662 3845
Q 2509 3994 2228 3994
Q 1941 3994 1786 3844
Q 1631 3694 1631 3419
z
" transform="scale(0.015625)"/>
     <path id="DejaVuSans-Bold-45" d="M 2400 722
Q 2759 722 2948 984
Q 3138 1247 3138 1747
Q 3138 2247 2948 2509
Q 2759 2772 2400 2772
Q 2041 2772 1848 2508
Q 1656 2244 1656 1747
Q 1656 1250 1848 986
Q 2041 722 2400 722
z
M 1656 2988
Q 1888 3294 2169 3439
Q 2450 3584 2816 3584
Q 3463 3584 3878 3070
Q 4294 2556 4294 1747
Q 4294 938 3878 423
Q 3463 -91 2816 -91
Q 2450 -91 2169 54
Q 1888 200 1656 506
L 1656 0
L 538 0
L 538 4863
L 1656 4863
L 1656 2988
z
" transform="scale(0.015625)"/>
    </defs>
    <use xlink:href="#DejaVuSans-Bold-2f"/>
    <use xlink:href="#DejaVuSans-Bold-52" transform="translate(63.71875 0)"/>
    <use xlink:href="#DejaVuSans-Bold-46" transform="translate(132.421875 0)"/>
    <use xlink:href="#DejaVuSans-Bold-44" transform="translate(191.703125 0)"/>
    <use xlink:href="#DejaVuSans-Bold-4f" transform="translate(259.1875 0)"/>
    <use xlink:href="#DejaVuSans-Bold-10" transform="translate(293.46875 0)"/>
    <use xlink:href="#DejaVuSans-Bold-46" transform="translate(334.96875 0)"/>
    <use xlink:href="#DejaVuSans-Bold-44" transform="translate(394.25 0)"/>
    <use xlink:href="#DejaVuSans-Bold-58" transform="translate(461.734375 0)"/>
    <use xlink:href="#DejaVuSans-Bold-56" transform="translate(532.921875 0)"/>
    <use xlink:href="#DejaVuSans-Bold-44" transform="translate(592.4375 0)"/>
    <use xlink:href="#DejaVuSans-Bold-4f" transform="translate(659.921875 0)"/>
    <use xlink:href="#DejaVuSans-Bold-3" transform="translate(694.203125 0)"/>
    <use xlink:href="#DejaVuSans-Bold-57" transform="translate(729.015625 0)"/>
    <use xlink:href="#DejaVuSans-Bold-4c" transform="translate(776.8125 0)"/>
    <use xlink:href="#DejaVuSans-Bold-4f" transform="translate(811.09375 0)"/>
    <use xlink:href="#DejaVuSans-Bold-4c" transform="translate(845.375 0)"/>
    <use xlink:href="#DejaVuSans-Bold-51" transform="translate(879.65625 0)"/>
    <use xlink:href="#DejaVuSans-Bold-4a" transform="translate(950.84375 0)"/>
    <use xlink:href="#DejaVuSans-Bold-3" transform="translate(1022.421875 0)"/>
    <use xlink:href="#DejaVuSans-Bold-44" transform="translate(1057.234375 0)"/>
    <use xlink:href="#DejaVuSans-Bold-46" transform="translate(1124.71875 0)"/>
    <use xlink:href="#DejaVuSans-Bold-55" transform="translate(1184 0)"/>
    <use xlink:href="#DejaVuSans-Bold-52" transform="translate(1233.3125 0)"/>
    <use xlink:href="#DejaVuSans-Bold-56" transform="translate(1302.015625 0)"/>
    <use xlink:href="#DejaVuSans-Bold-56" transform="translate(1361.53125 0)"/>
    <use xlink:href="#DejaVuSans-Bold-3" transform="translate(1421.046875 0)"/>
    <use xlink:href="#DejaVuSans-Bold-14" transform="translate(1455.859375 0)"/>
    <use xlink:href="#DejaVuSans-Bold-15" transform="translate(1525.4375 0)"/>
    <use xlink:href="#DejaVuSans-Bold-1b" transform="translate(1595.015625 0)"/>
    <use xlink:href="#DejaVuSans-Bold-10" transform="translate(1664.59375 0)"/>
    <use xlink:href="#DejaVuSans-Bold-57" transform="translate(1706.09375 0)"/>
    <use xlink:href="#DejaVuSans-Bold-52" transform="translate(1753.890625 0)"/>
    <use xlink:href="#DejaVuSans-Bold-4e" transform="translate(1822.59375 0)"/>
    <use xlink:href="#DejaVuSans-Bold-48" transform="translate(1886.40625 0)"/>
    <use xlink:href="#DejaVuSans-Bold-51" transform="translate(1954.234375 0)"/>
    <use xlink:href="#DejaVuSans-Bold-3" transform="translate(2025.421875 0)"/>
    <use xlink:href="#DejaVuSans-Bold-45" transform="translate(2060.234375 0)"/>
    <use xlink:href="#DejaVuSans-Bold-52" transform="translate(2131.8125 0)"/>
    <use xlink:href="#DejaVuSans-Bold-58" transform="translate(2200.515625 0)"/>
    <use xlink:href="#DejaVuSans-Bold-51" transform="translate(2271.703125 0)"/>
    <use xlink:href="#DejaVuSans-Bold-47" transform="translate(2342.890625 0)"/>
    <use xlink:href="#DejaVuSans-Bold-44" transform="translate(2414.46875 0)"/>
    <use xlink:href="#DejaVuSans-Bold-55" transform="translate(2481.953125 0)"/>
    <use xlink:href="#DejaVuSans-Bold-4c" transform="translate(2531.265625 0)"/>
    <use xlink:href="#DejaVuSans-Bold-48" transform="translate(2565.546875 0)"/>
    <use xlink:href="#DejaVuSans-Bold-56" transform="translate(2633.375 0)"/>
   </g>
  </g>
  <g id="text_14">
   <!-- context = 125 · window_size = (124, 0) · local-causal mask applies within each pair -->
   <g style="fill: #111827" transform="translate(356.830312 389.067363) scale(0.135 -0.135)">
    <defs>
     <path id="DejaVuSans-46" d="M 3122 3366
L 3122 2828
Q 2878 2963 2633 3030
Q 2388 3097 2138 3097
Q 1578 3097 1268 2742
Q 959 2388 959 1747
Q 959 1106 1268 751
Q 1578 397 2138 397
Q 2388 397 2633 464
Q 2878 531 3122 666
L 3122 134
Q 2881 22 2623 -34
Q 2366 -91 2075 -91
Q 1284 -91 818 406
Q 353 903 353 1747
Q 353 2603 823 3093
Q 1294 3584 2113 3584
Q 2378 3584 2631 3529
Q 2884 3475 3122 3366
z
" transform="scale(0.015625)"/>
     <path id="DejaVuSans-52" d="M 1959 3097
Q 1497 3097 1228 2736
Q 959 2375 959 1747
Q 959 1119 1226 758
Q 1494 397 1959 397
Q 2419 397 2687 759
Q 2956 1122 2956 1747
Q 2956 2369 2687 2733
Q 2419 3097 1959 3097
z
M 1959 3584
Q 2709 3584 3137 3096
Q 3566 2609 3566 1747
Q 3566 888 3137 398
Q 2709 -91 1959 -91
Q 1206 -91 779 398
Q 353 888 353 1747
Q 353 2609 779 3096
Q 1206 3584 1959 3584
z
" transform="scale(0.015625)"/>
     <path id="DejaVuSans-51" d="M 3513 2113
L 3513 0
L 2938 0
L 2938 2094
Q 2938 2591 2744 2837
Q 2550 3084 2163 3084
Q 1697 3084 1428 2787
Q 1159 2491 1159 1978
L 1159 0
L 581 0
L 581 3500
L 1159 3500
L 1159 2956
Q 1366 3272 1645 3428
Q 1925 3584 2291 3584
Q 2894 3584 3203 3211
Q 3513 2838 3513 2113
z
" transform="scale(0.015625)"/>
     <path id="DejaVuSans-57" d="M 1172 4494
L 1172 3500
L 2356 3500
L 2356 3053
L 1172 3053
L 1172 1153
Q 1172 725 1289 603
Q 1406 481 1766 481
L 2356 481
L 2356 0
L 1766 0
Q 1100 0 847 248
Q 594 497 594 1153
L 594 3053
L 172 3053
L 172 3500
L 594 3500
L 594 4494
L 1172 4494
z
" transform="scale(0.015625)"/>
     <path id="DejaVuSans-48" d="M 3597 1894
L 3597 1613
L 953 1613
Q 991 1019 1311 708
Q 1631 397 2203 397
Q 2534 397 2845 478
Q 3156 559 3463 722
L 3463 178
Q 3153 47 2828 -22
Q 2503 -91 2169 -91
Q 1331 -91 842 396
Q 353 884 353 1716
Q 353 2575 817 3079
Q 1281 3584 2069 3584
Q 2775 3584 3186 3129
Q 3597 2675 3597 1894
z
M 3022 2063
Q 3016 2534 2758 2815
Q 2500 3097 2075 3097
Q 1594 3097 1305 2825
Q 1016 2553 972 2059
L 3022 2063
z
" transform="scale(0.015625)"/>
     <path id="DejaVuSans-5b" d="M 3513 3500
L 2247 1797
L 3578 0
L 2900 0
L 1881 1375
L 863 0
L 184 0
L 1544 1831
L 300 3500
L 978 3500
L 1906 2253
L 2834 3500
L 3513 3500
z
" transform="scale(0.015625)"/>
     <path id="DejaVuSans-3" transform="scale(0.015625)"/>
     <path id="DejaVuSans-20" d="M 678 2906
L 4684 2906
L 4684 2381
L 678 2381
L 678 2906
z
M 678 1631
L 4684 1631
L 4684 1100
L 678 1100
L 678 1631
z
" transform="scale(0.015625)"/>
     <path id="DejaVuSans-79" d="M 684 2619
L 1344 2619
L 1344 1825
L 684 1825
L 684 2619
z
" transform="scale(0.015625)"/>
     <path id="DejaVuSans-5a" d="M 269 3500
L 844 3500
L 1563 769
L 2278 3500
L 2956 3500
L 3675 769
L 4391 3500
L 4966 3500
L 4050 0
L 3372 0
L 2619 2869
L 1863 0
L 1184 0
L 269 3500
z
" transform="scale(0.015625)"/>
     <path id="DejaVuSans-4c" d="M 603 3500
L 1178 3500
L 1178 0
L 603 0
L 603 3500
z
M 603 4863
L 1178 4863
L 1178 4134
L 603 4134
L 603 4863
z
" transform="scale(0.015625)"/>
     <path id="DejaVuSans-47" d="M 2906 2969
L 2906 4863
L 3481 4863
L 3481 0
L 2906 0
L 2906 525
Q 2725 213 2448 61
Q 2172 -91 1784 -91
Q 1150 -91 751 415
Q 353 922 353 1747
Q 353 2572 751 3078
Q 1150 3584 1784 3584
Q 2172 3584 2448 3432
Q 2725 3281 2906 2969
z
M 947 1747
Q 947 1113 1208 752
Q 1469 391 1925 391
Q 2381 391 2643 752
Q 2906 1113 2906 1747
Q 2906 2381 2643 2742
Q 2381 3103 1925 3103
Q 1469 3103 1208 2742
Q 947 2381 947 1747
z
" transform="scale(0.015625)"/>
     <path id="DejaVuSans-42" d="M 3263 -1063
L 3263 -1509
L -63 -1509
L -63 -1063
L 3263 -1063
z
" transform="scale(0.015625)"/>
     <path id="DejaVuSans-56" d="M 2834 3397
L 2834 2853
Q 2591 2978 2328 3040
Q 2066 3103 1784 3103
Q 1356 3103 1142 2972
Q 928 2841 928 2578
Q 928 2378 1081 2264
Q 1234 2150 1697 2047
L 1894 2003
Q 2506 1872 2764 1633
Q 3022 1394 3022 966
Q 3022 478 2636 193
Q 2250 -91 1575 -91
Q 1294 -91 989 -36
Q 684 19 347 128
L 347 722
Q 666 556 975 473
Q 1284 391 1588 391
Q 1994 391 2212 530
Q 2431 669 2431 922
Q 2431 1156 2273 1281
Q 2116 1406 1581 1522
L 1381 1569
Q 847 1681 609 1914
Q 372 2147 372 2553
Q 372 3047 722 3315
Q 1072 3584 1716 3584
Q 2034 3584 2315 3537
Q 2597 3491 2834 3397
z
" transform="scale(0.015625)"/>
     <path id="DejaVuSans-5d" d="M 353 3500
L 3084 3500
L 3084 2975
L 922 459
L 3084 459
L 3084 0
L 275 0
L 275 525
L 2438 3041
L 353 3041
L 353 3500
z
" transform="scale(0.015625)"/>
     <path id="DejaVuSans-b" d="M 1984 4856
Q 1566 4138 1362 3434
Q 1159 2731 1159 2009
Q 1159 1288 1364 580
Q 1569 -128 1984 -844
L 1484 -844
Q 1016 -109 783 600
Q 550 1309 550 2009
Q 550 2706 781 3412
Q 1013 4119 1484 4856
L 1984 4856
z
" transform="scale(0.015625)"/>
     <path id="DejaVuSans-f" d="M 750 794
L 1409 794
L 1409 256
L 897 -744
L 494 -744
L 750 256
L 750 794
z
" transform="scale(0.015625)"/>
     <path id="DejaVuSans-c" d="M 513 4856
L 1013 4856
Q 1481 4119 1714 3412
Q 1947 2706 1947 2009
Q 1947 1309 1714 600
Q 1481 -109 1013 -844
L 513 -844
Q 928 -128 1133 580
Q 1338 1288 1338 2009
Q 1338 2731 1133 3434
Q 928 4138 513 4856
z
" transform="scale(0.015625)"/>
     <path id="DejaVuSans-4f" d="M 603 4863
L 1178 4863
L 1178 0
L 603 0
L 603 4863
z
" transform="scale(0.015625)"/>
     <path id="DejaVuSans-44" d="M 2194 1759
Q 1497 1759 1228 1600
Q 959 1441 959 1056
Q 959 750 1161 570
Q 1363 391 1709 391
Q 2188 391 2477 730
Q 2766 1069 2766 1631
L 2766 1759
L 2194 1759
z
M 3341 1997
L 3341 0
L 2766 0
L 2766 531
Q 2569 213 2275 61
Q 1981 -91 1556 -91
Q 1019 -91 701 211
Q 384 513 384 1019
Q 384 1609 779 1909
Q 1175 2209 1959 2209
L 2766 2209
L 2766 2266
Q 2766 2663 2505 2880
Q 2244 3097 1772 3097
Q 1472 3097 1187 3025
Q 903 2953 641 2809
L 641 3341
Q 956 3463 1253 3523
Q 1550 3584 1831 3584
Q 2591 3584 2966 3190
Q 3341 2797 3341 1997
z
" transform="scale(0.015625)"/>
     <path id="DejaVuSans-10" d="M 313 2009
L 1997 2009
L 1997 1497
L 313 1497
L 313 2009
z
" transform="scale(0.015625)"/>
     <path id="DejaVuSans-58" d="M 544 1381
L 544 3500
L 1119 3500
L 1119 1403
Q 1119 906 1312 657
Q 1506 409 1894 409
Q 2359 409 2629 706
Q 2900 1003 2900 1516
L 2900 3500
L 3475 3500
L 3475 0
L 2900 0
L 2900 538
Q 2691 219 2414 64
Q 2138 -91 1772 -91
Q 1169 -91 856 284
Q 544 659 544 1381
z
M 1991 3584
L 1991 3584
z
" transform="scale(0.015625)"/>
     <path id="DejaVuSans-50" d="M 3328 2828
Q 3544 3216 3844 3400
Q 4144 3584 4550 3584
Q 5097 3584 5394 3201
Q 5691 2819 5691 2113
L 5691 0
L 5113 0
L 5113 2094
Q 5113 2597 4934 2840
Q 4756 3084 4391 3084
Q 3944 3084 3684 2787
Q 3425 2491 3425 1978
L 3425 0
L 2847 0
L 2847 2094
Q 2847 2600 2669 2842
Q 2491 3084 2119 3084
Q 1678 3084 1418 2786
Q 1159 2488 1159 1978
L 1159 0
L 581 0
L 581 3500
L 1159 3500
L 1159 2956
Q 1356 3278 1631 3431
Q 1906 3584 2284 3584
Q 2666 3584 2933 3390
Q 3200 3197 3328 2828
z
" transform="scale(0.015625)"/>
     <path id="DejaVuSans-4e" d="M 581 4863
L 1159 4863
L 1159 1991
L 2875 3500
L 3609 3500
L 1753 1863
L 3688 0
L 2938 0
L 1159 1709
L 1159 0
L 581 0
L 581 4863
z
" transform="scale(0.015625)"/>
     <path id="DejaVuSans-53" d="M 1159 525
L 1159 -1331
L 581 -1331
L 581 3500
L 1159 3500
L 1159 2969
Q 1341 3281 1617 3432
Q 1894 3584 2278 3584
Q 2916 3584 3314 3078
Q 3713 2572 3713 1747
Q 3713 922 3314 415
Q 2916 -91 2278 -91
Q 1894 -91 1617 61
Q 1341 213 1159 525
z
M 3116 1747
Q 3116 2381 2855 2742
Q 2594 3103 2138 3103
Q 1681 3103 1420 2742
Q 1159 2381 1159 1747
Q 1159 1113 1420 752
Q 1681 391 2138 391
Q 2594 391 2855 752
Q 3116 1113 3116 1747
z
" transform="scale(0.015625)"/>
     <path id="DejaVuSans-4b" d="M 3513 2113
L 3513 0
L 2938 0
L 2938 2094
Q 2938 2591 2744 2837
Q 2550 3084 2163 3084
Q 1697 3084 1428 2787
Q 1159 2491 1159 1978
L 1159 0
L 581 0
L 581 4863
L 1159 4863
L 1159 2956
Q 1366 3272 1645 3428
Q 1925 3584 2291 3584
Q 2894 3584 3203 3211
Q 3513 2838 3513 2113
z
" transform="scale(0.015625)"/>
     <path id="DejaVuSans-55" d="M 2631 2963
Q 2534 3019 2420 3045
Q 2306 3072 2169 3072
Q 1681 3072 1420 2755
Q 1159 2438 1159 1844
L 1159 0
L 581 0
L 581 3500
L 1159 3500
L 1159 2956
Q 1341 3275 1631 3429
Q 1922 3584 2338 3584
Q 2397 3584 2469 3576
Q 2541 3569 2628 3553
L 2631 2963
z
" transform="scale(0.015625)"/>
    </defs>
    <use xlink:href="#DejaVuSans-46"/>
    <use xlink:href="#DejaVuSans-52" transform="translate(54.984375 0)"/>
    <use xlink:href="#DejaVuSans-51" transform="translate(116.171875 0)"/>
    <use xlink:href="#DejaVuSans-57" transform="translate(179.546875 0)"/>
    <use xlink:href="#DejaVuSans-48" transform="translate(218.75 0)"/>
    <use xlink:href="#DejaVuSans-5b" transform="translate(278.53125 0)"/>
    <use xlink:href="#DejaVuSans-57" transform="translate(337.71875 0)"/>
    <use xlink:href="#DejaVuSans-3" transform="translate(376.921875 0)"/>
    <use xlink:href="#DejaVuSans-20" transform="translate(408.703125 0)"/>
    <use xlink:href="#DejaVuSans-3" transform="translate(492.5 0)"/>
    <use xlink:href="#DejaVuSans-14" transform="translate(524.28125 0)"/>
    <use xlink:href="#DejaVuSans-15" transform="translate(587.90625 0)"/>
    <use xlink:href="#DejaVuSans-18" transform="translate(651.53125 0)"/>
    <use xlink:href="#DejaVuSans-3" transform="translate(715.15625 0)"/>
    <use xlink:href="#DejaVuSans-79" transform="translate(746.9375 0)"/>
    <use xlink:href="#DejaVuSans-3" transform="translate(778.71875 0)"/>
    <use xlink:href="#DejaVuSans-5a" transform="translate(810.5 0)"/>
    <use xlink:href="#DejaVuSans-4c" transform="translate(892.28125 0)"/>
    <use xlink:href="#DejaVuSans-51" transform="translate(920.0625 0)"/>
    <use xlink:href="#DejaVuSans-47" transform="translate(983.4375 0)"/>
    <use xlink:href="#DejaVuSans-52" transform="translate(1046.921875 0)"/>
    <use xlink:href="#DejaVuSans-5a" transform="translate(1108.109375 0)"/>
    <use xlink:href="#DejaVuSans-42" transform="translate(1189.890625 0)"/>
    <use xlink:href="#DejaVuSans-56" transform="translate(1239.890625 0)"/>
    <use xlink:href="#DejaVuSans-4c" transform="translate(1291.984375 0)"/>
    <use xlink:href="#DejaVuSans-5d" transform="translate(1319.765625 0)"/>
    <use xlink:href="#DejaVuSans-48" transform="translate(1372.25 0)"/>
    <use xlink:href="#DejaVuSans-3" transform="translate(1433.78125 0)"/>
    <use xlink:href="#DejaVuSans-20" transform="translate(1465.5625 0)"/>
    <use xlink:href="#DejaVuSans-3" transform="translate(1549.359375 0)"/>
    <use xlink:href="#DejaVuSans-b" transform="translate(1581.140625 0)"/>
    <use xlink:href="#DejaVuSans-14" transform="translate(1620.15625 0)"/>
    <use xlink:href="#DejaVuSans-15" transform="translate(1683.78125 0)"/>
    <use xlink:href="#DejaVuSans-17" transform="translate(1747.40625 0)"/>
    <use xlink:href="#DejaVuSans-f" transform="translate(1811.03125 0)"/>
    <use xlink:href="#DejaVuSans-3" transform="translate(1842.8125 0)"/>
    <use xlink:href="#DejaVuSans-13" transform="translate(1874.59375 0)"/>
    <use xlink:href="#DejaVuSans-c" transform="translate(1938.21875 0)"/>
    <use xlink:href="#DejaVuSans-3" transform="translate(1977.234375 0)"/>
    <use xlink:href="#DejaVuSans-79" transform="translate(2009.015625 0)"/>
    <use xlink:href="#DejaVuSans-3" transform="translate(2040.796875 0)"/>
    <use xlink:href="#DejaVuSans-4f" transform="translate(2072.578125 0)"/>
    <use xlink:href="#DejaVuSans-52" transform="translate(2100.359375 0)"/>
    <use xlink:href="#DejaVuSans-46" transform="translate(2161.546875 0)"/>
    <use xlink:href="#DejaVuSans-44" transform="translate(2216.53125 0)"/>
    <use xlink:href="#DejaVuSans-4f" transform="translate(2277.8125 0)"/>
    <use xlink:href="#DejaVuSans-10" transform="translate(2305.59375 0)"/>
    <use xlink:href="#DejaVuSans-46" transform="translate(2341.671875 0)"/>
    <use xlink:href="#DejaVuSans-44" transform="translate(2396.65625 0)"/>
    <use xlink:href="#DejaVuSans-58" transform="translate(2457.9375 0)"/>
    <use xlink:href="#DejaVuSans-56" transform="translate(2521.3125 0)"/>
    <use xlink:href="#DejaVuSans-44" transform="translate(2573.40625 0)"/>
    <use xlink:href="#DejaVuSans-4f" transform="translate(2634.6875 0)"/>
    <use xlink:href="#DejaVuSans-3" transform="translate(2662.46875 0)"/>
    <use xlink:href="#DejaVuSans-50" transform="translate(2694.25 0)"/>
    <use xlink:href="#DejaVuSans-44" transform="translate(2791.65625 0)"/>
    <use xlink:href="#DejaVuSans-56" transform="translate(2852.9375 0)"/>
    <use xlink:href="#DejaVuSans-4e" transform="translate(2905.03125 0)"/>
    <use xlink:href="#DejaVuSans-3" transform="translate(2962.9375 0)"/>
    <use xlink:href="#DejaVuSans-44" transform="translate(2994.71875 0)"/>
    <use xlink:href="#DejaVuSans-53" transform="translate(3056 0)"/>
    <use xlink:href="#DejaVuSans-53" transform="translate(3119.484375 0)"/>
    <use xlink:href="#DejaVuSans-4f" transform="translate(3182.96875 0)"/>
    <use xlink:href="#DejaVuSans-4c" transform="translate(3210.75 0)"/>
    <use xlink:href="#DejaVuSans-48" transform="translate(3238.53125 0)"/>
    <use xlink:href="#DejaVuSans-56" transform="translate(3300.0625 0)"/>
    <use xlink:href="#DejaVuSans-3" transform="translate(3352.15625 0)"/>
    <use xlink:href="#DejaVuSans-5a" transform="translate(3383.9375 0)"/>
    <use xlink:href="#DejaVuSans-4c" transform="translate(3465.71875 0)"/>
    <use xlink:href="#DejaVuSans-57" transform="translate(3493.5 0)"/>
    <use xlink:href="#DejaVuSans-4b" transform="translate(3532.703125 0)"/>
    <use xlink:href="#DejaVuSans-4c" transform="translate(3596.078125 0)"/>
    <use xlink:href="#DejaVuSans-51" transform="translate(3623.859375 0)"/>
    <use xlink:href="#DejaVuSans-3" transform="translate(3687.234375 0)"/>
    <use xlink:href="#DejaVuSans-48" transform="translate(3719.015625 0)"/>
    <use xlink:href="#DejaVuSans-44" transform="translate(3780.546875 0)"/>
    <use xlink:href="#DejaVuSans-46" transform="translate(3841.828125 0)"/>
    <use xlink:href="#DejaVuSans-4b" transform="translate(3896.8125 0)"/>
    <use xlink:href="#DejaVuSans-3" transform="translate(3960.1875 0)"/>
    <use xlink:href="#DejaVuSans-53" transform="translate(3991.96875 0)"/>
    <use xlink:href="#DejaVuSans-44" transform="translate(4055.453125 0)"/>
    <use xlink:href="#DejaVuSans-4c" transform="translate(4116.734375 0)"/>
    <use xlink:href="#DejaVuSans-55" transform="translate(4144.515625 0)"/>
   </g>
  </g>
 </g>
 <defs>
  <clipPath id="p63e3e9b9a4">
   <rect x="167.04" y="90.72" width="944.64" height="262.44"/>
  </clipPath>
  <clipPath id="pf281ca2798">
   <rect x="103.68" y="434.16" width="967.68" height="174.96"/>
  </clipPath>
 </defs>
</svg>
